<svg width="25" height="35" viewBox="0 0 25 35" fill="none" xmlns="http://www.w3.org/2000/svg">
<path d="M2.83821 25.9652L2.83805 25.9653C1.98775 26.7868 1.5 27.9121 1.5 29.097C1.5 30.2819 1.98775 31.4072 2.83805 32.2287L2.83837 32.229C3.68715 33.0485 4.82739 33.5 6.00584 33.5C7.18428 33.5 8.32452 33.0485 9.1733 32.229L9.17346 32.2288L21.1994 20.6143L21.1995 20.6141C22.0498 19.7927 22.5376 18.6673 22.5376 17.4825C22.5376 16.2976 22.0498 15.1723 21.1995 14.3508L21.1994 14.3506L9.17346 2.73613L9.16409 2.72709L9.15457 2.71821C8.30149 1.92245 7.16937 1.49038 6.00407 1.50016C4.83874 1.50994 3.71405 1.96099 2.87483 2.7715L2.87483 2.7715C2.03392 3.58364 1.54702 4.69339 1.53648 5.8649C1.52593 7.03647 1.99286 8.15478 2.81962 8.9815L2.82884 8.99072L2.83821 8.99977L11.6214 17.4825L2.83821 25.9652Z" fill="white" stroke="url(#paint0_linear_218_26)" stroke-width="3"/>
<defs>
<linearGradient id="paint0_linear_218_26" x1="3" y1="17.5" x2="22.0574" y2="16.9795" gradientUnits="userSpaceOnUse">
<stop stop-color="#888888"/>
<stop offset="0.470005" stop-color="#4C4C4C"/>
<stop offset="1" stop-color="#8B8B8B"/>
</linearGradient>
</defs>
</svg>
