<svg width="1615" height="576" viewBox="0 0 1615 576" fill="none" xmlns="http://www.w3.org/2000/svg">
<g clip-path="url(#clip0_4003_2)">
<mask id="path-1-outside-1_4003_2" maskUnits="userSpaceOnUse" x="859" y="44.876" width="733" height="315" fill="black">
<rect fill="white" x="859" y="44.876" width="733" height="315"/>
<path d="M938.092 356.173C923.571 356.173 910.63 353.654 899.27 348.616C887.909 343.479 878.92 335.922 872.301 325.945C865.781 315.869 862.521 303.323 862.521 288.308C862.521 275.663 864.843 265.044 869.486 256.449C874.129 247.855 880.451 240.94 888.453 235.704C896.454 230.469 905.543 226.517 915.717 223.85C925.991 221.183 936.759 219.306 948.02 218.219C961.258 216.836 971.926 215.552 980.027 214.367C988.127 213.082 994.005 211.205 997.66 208.736C1001.32 206.266 1003.14 202.611 1003.14 197.771V196.882C1003.14 187.497 1000.18 180.236 994.252 175.099C988.424 169.963 980.126 167.394 969.358 167.394C957.998 167.394 948.959 169.913 942.241 174.951C935.524 179.89 931.079 186.114 928.905 193.622L870.523 188.88C873.487 175.05 879.315 163.097 888.008 153.021C896.701 142.846 907.913 135.042 921.645 129.609C935.475 124.077 951.478 121.311 969.654 121.311C982.299 121.311 994.4 122.792 1005.96 125.756C1017.61 128.72 1027.94 133.313 1036.93 139.537C1046.02 145.76 1053.18 153.762 1058.41 163.541C1063.65 173.222 1066.27 184.83 1066.27 198.363V351.876H1006.4V320.314H1004.62C1000.97 327.427 996.079 333.699 989.955 339.133C983.83 344.467 976.471 348.665 967.876 351.728C959.282 354.691 949.354 356.173 938.092 356.173ZM956.17 312.609C965.456 312.609 973.655 310.781 980.768 307.126C987.88 303.372 993.462 298.334 997.512 292.012C1001.56 285.69 1003.59 278.528 1003.59 270.526V246.373C1001.61 247.657 998.895 248.843 995.437 249.929C992.079 250.917 988.275 251.856 984.028 252.745C979.78 253.535 975.532 254.276 971.284 254.967C967.037 255.56 963.184 256.103 959.726 256.597C952.317 257.684 945.847 259.413 940.315 261.784C934.783 264.154 930.486 267.365 927.424 271.415C924.361 275.367 922.83 280.306 922.83 286.233C922.83 294.827 925.942 301.397 932.165 305.941C938.488 310.386 946.489 312.609 956.17 312.609ZM1178.36 220.294V351.876H1115.24V124.274H1175.4V164.431H1178.07C1183.11 151.193 1191.55 140.722 1203.41 133.017C1215.26 125.213 1229.63 121.311 1246.53 121.311C1262.33 121.311 1276.11 124.768 1287.87 131.683C1299.62 138.598 1308.76 148.477 1315.28 161.319C1321.8 174.062 1325.06 189.275 1325.06 206.958V351.876H1261.94V218.219C1262.03 204.29 1258.48 193.424 1251.27 185.62C1244.06 177.717 1234.13 173.766 1221.48 173.766C1212.99 173.766 1205.48 175.593 1198.96 179.248C1192.54 182.903 1187.5 188.238 1183.85 195.252C1180.29 202.167 1178.46 210.514 1178.36 220.294ZM1458.68 355.58C1441.39 355.58 1425.73 351.135 1411.71 342.244C1397.78 333.255 1386.71 320.067 1378.52 302.681C1370.41 285.196 1366.36 263.759 1366.36 238.371C1366.36 212.292 1370.56 190.609 1378.96 173.321C1387.36 155.935 1398.52 142.945 1412.45 134.35C1426.48 125.657 1441.84 121.311 1458.53 121.311C1471.27 121.311 1481.89 123.484 1490.39 127.831C1498.98 132.078 1505.9 137.413 1511.13 143.834C1516.47 150.156 1520.52 156.38 1523.29 162.504H1525.21V48.407H1588.19V351.876H1525.95V315.424H1523.29C1520.32 321.746 1516.12 328.019 1510.69 334.243C1505.36 340.367 1498.39 345.455 1489.8 349.505C1481.3 353.555 1470.93 355.58 1458.68 355.58ZM1478.68 305.348C1488.86 305.348 1497.45 302.582 1504.47 297.05C1511.58 291.419 1517.01 283.566 1520.77 273.49C1524.62 263.414 1526.55 251.609 1526.55 238.075C1526.55 224.541 1524.67 212.786 1520.91 202.809C1517.16 192.831 1511.73 185.126 1504.61 179.693C1497.5 174.26 1488.86 171.543 1478.68 171.543C1468.31 171.543 1459.57 174.358 1452.46 179.989C1445.34 185.62 1439.96 193.424 1436.3 203.401C1432.65 213.379 1430.82 224.937 1430.82 238.075C1430.82 251.312 1432.65 263.018 1436.3 273.193C1440.06 283.269 1445.44 291.172 1452.46 296.902C1459.57 302.533 1468.31 305.348 1478.68 305.348Z"/>
</mask>
<path d="M899.27 348.616L898.034 351.35L898.044 351.354L898.053 351.358L899.27 348.616ZM872.301 325.945L869.783 327.575L869.792 327.589L869.801 327.603L872.301 325.945ZM869.486 256.449L866.846 255.023L869.486 256.449ZM888.453 235.704L886.81 233.194L888.453 235.704ZM915.717 223.85L914.964 220.946L914.957 220.948L915.717 223.85ZM948.02 218.219L948.308 221.205L948.32 221.204L948.332 221.203L948.02 218.219ZM980.027 214.367L980.461 217.335L980.479 217.332L980.497 217.33L980.027 214.367ZM997.66 208.736L995.98 206.25V206.25L997.66 208.736ZM994.252 175.099L992.268 177.35L992.278 177.358L992.287 177.366L994.252 175.099ZM942.241 174.951L944.019 177.368L944.03 177.36L944.041 177.351L942.241 174.951ZM928.905 193.622L928.662 196.612L931.105 196.81L931.787 194.456L928.905 193.622ZM870.523 188.88L867.59 188.251L866.874 191.593L870.28 191.87L870.523 188.88ZM888.008 153.021L890.28 154.98L890.284 154.975L890.289 154.97L888.008 153.021ZM921.645 129.609L922.748 132.398L922.759 132.394L921.645 129.609ZM1005.96 125.756L1005.21 128.662L1005.22 128.664L1005.96 125.756ZM1036.93 139.537L1035.22 142.003L1035.23 142.008L1035.23 142.012L1036.93 139.537ZM1058.41 163.541L1055.77 164.957L1055.77 164.969L1058.41 163.541ZM1066.27 351.876V354.876H1069.27V351.876H1066.27ZM1006.4 351.876H1003.4V354.876H1006.4V351.876ZM1006.4 320.314H1009.4V317.314H1006.4V320.314ZM1004.62 320.314V317.314H1002.79L1001.96 318.943L1004.62 320.314ZM989.955 339.133L991.925 341.395L991.935 341.386L991.946 341.377L989.955 339.133ZM967.876 351.728L968.854 354.564L968.869 354.559L968.883 354.554L967.876 351.728ZM980.768 307.126L982.139 309.794L982.153 309.787L982.168 309.779L980.768 307.126ZM997.512 292.012L994.986 290.394L997.512 292.012ZM1003.59 246.373H1006.59V240.845L1001.95 243.858L1003.59 246.373ZM995.437 249.929L996.284 252.807L996.31 252.8L996.337 252.791L995.437 249.929ZM984.028 252.745L984.576 255.694L984.609 255.688L984.642 255.681L984.028 252.745ZM971.284 254.967L971.699 257.939L971.733 257.934L971.766 257.928L971.284 254.967ZM959.726 256.597L959.302 253.628L959.291 253.629L959.726 256.597ZM940.315 261.784L941.497 264.541L940.315 261.784ZM927.424 271.415L929.795 273.253L929.806 273.239L929.817 273.225L927.424 271.415ZM932.165 305.941L930.396 308.364L930.418 308.379L930.44 308.395L932.165 305.941ZM938.092 353.173C923.92 353.173 911.404 350.716 900.486 345.874L898.053 351.358C909.856 356.593 923.222 359.173 938.092 359.173V353.173ZM900.506 345.883C889.637 340.968 881.095 333.774 874.801 324.286L869.801 327.603C876.745 338.071 886.182 345.99 898.034 351.35L900.506 345.883ZM874.82 324.315C868.685 314.833 865.521 302.89 865.521 288.308H859.521C859.521 303.756 862.878 316.904 869.783 327.575L874.82 324.315ZM865.521 288.308C865.521 276.018 867.779 265.921 872.125 257.875L866.846 255.023C861.907 264.166 859.521 275.307 859.521 288.308H865.521ZM872.125 257.875C876.537 249.71 882.52 243.171 890.095 238.215L886.81 233.194C878.382 238.709 871.721 246 866.846 255.023L872.125 257.875ZM890.095 238.215C897.8 233.173 906.585 229.345 916.478 226.752L914.957 220.948C904.5 223.689 895.108 227.764 886.81 233.194L890.095 238.215ZM916.471 226.754C926.583 224.129 937.194 222.278 948.308 221.205L947.732 215.233C936.324 216.334 925.4 218.237 914.964 220.946L916.471 226.754ZM948.332 221.203C961.588 219.818 972.303 218.529 980.461 217.335L979.592 211.398C971.55 212.575 960.927 213.854 947.709 215.235L948.332 221.203ZM980.497 217.33C988.72 216.026 995.129 214.067 999.34 211.222L995.98 206.25C992.881 208.344 987.534 210.139 979.557 211.404L980.497 217.33ZM999.34 211.222C1003.91 208.133 1006.14 203.493 1006.14 197.771H1000.14C1000.14 201.729 998.72 204.399 995.98 206.25L999.34 211.222ZM1006.14 197.771V196.882H1000.14V197.771H1006.14ZM1006.14 196.882C1006.14 186.814 1002.93 178.651 996.217 172.832L992.287 177.366C997.427 181.821 1000.14 188.179 1000.14 196.882H1006.14ZM996.236 172.849C989.679 167.07 980.574 164.394 969.358 164.394V170.394C979.677 170.394 987.168 172.855 992.268 177.35L996.236 172.849ZM969.358 164.394C957.575 164.394 947.834 167.007 940.441 172.551L944.041 177.351C950.084 172.819 958.42 170.394 969.358 170.394V164.394ZM940.464 172.534C933.252 177.837 928.393 184.601 926.024 192.787L931.787 194.456C933.764 187.627 937.796 181.944 944.019 177.368L940.464 172.534ZM929.148 190.631L870.766 185.89L870.28 191.87L928.662 196.612L929.148 190.631ZM873.456 189.509C876.321 176.139 881.936 164.652 890.28 154.98L885.737 151.061C876.694 161.542 870.652 173.961 867.59 188.251L873.456 189.509ZM890.289 154.97C898.632 145.204 909.424 137.67 922.748 132.398L920.541 126.819C906.402 132.413 894.77 140.488 885.727 151.072L890.289 154.97ZM922.759 132.394C936.166 127.031 951.778 124.311 969.654 124.311V118.311C951.178 118.311 934.783 121.122 920.53 126.823L922.759 132.394ZM969.654 124.311C982.062 124.311 993.913 125.764 1005.21 128.662L1006.7 122.85C994.888 119.82 982.535 118.311 969.654 118.311V124.311ZM1005.22 128.664C1016.56 131.548 1026.55 136.003 1035.22 142.003L1038.63 137.07C1029.32 130.624 1018.67 125.891 1006.7 122.848L1005.22 128.664ZM1035.23 142.012C1043.92 147.961 1050.76 155.599 1055.77 164.957L1061.06 162.126C1055.6 151.925 1048.11 143.559 1038.62 137.061L1035.23 142.012ZM1055.77 164.969C1060.72 174.122 1063.27 185.215 1063.27 198.363H1069.27C1069.27 184.444 1066.57 172.323 1061.05 162.114L1055.77 164.969ZM1063.27 198.363V351.876H1069.27V198.363H1063.27ZM1066.27 348.876H1006.4V354.876H1066.27V348.876ZM1009.4 351.876V320.314H1003.4V351.876H1009.4ZM1006.4 317.314H1004.62V323.314H1006.4V317.314ZM1001.96 318.943C998.475 325.717 993.817 331.696 987.964 336.888L991.946 341.377C998.341 335.703 1003.46 329.136 1007.29 321.685L1001.96 318.943ZM987.984 336.87C982.176 341.93 975.153 345.95 966.869 348.902L968.883 354.554C977.788 351.381 985.485 347.004 991.925 341.395L987.984 336.87ZM966.898 348.892C958.683 351.724 949.097 353.173 938.092 353.173V359.173C949.61 359.173 959.88 357.658 968.854 354.564L966.898 348.892ZM956.17 315.609C965.856 315.609 974.539 313.7 982.139 309.794L979.396 304.458C972.772 307.862 965.056 309.609 956.17 309.609V315.609ZM982.168 309.779C989.705 305.801 995.688 300.42 1000.04 293.63L994.986 290.394C991.235 296.249 986.055 300.943 979.367 304.473L982.168 309.779ZM1000.04 293.63C1004.42 286.793 1006.59 279.062 1006.59 270.526H1000.59C1000.59 277.994 998.706 284.587 994.986 290.394L1000.04 293.63ZM1006.59 270.526V246.373H1000.59V270.526H1006.59ZM1001.95 243.858C1000.29 244.937 997.859 246.024 994.538 247.067L996.337 252.791C999.931 251.662 1002.93 250.378 1005.22 248.888L1001.95 243.858ZM994.591 247.051C991.324 248.012 987.6 248.932 983.413 249.808L984.642 255.681C988.95 254.779 992.833 253.822 996.284 252.807L994.591 247.051ZM983.479 249.795C979.253 250.582 975.028 251.319 970.802 252.006L971.766 257.928C976.036 257.233 980.306 256.489 984.576 255.694L983.479 249.795ZM970.87 251.996C966.619 252.589 962.763 253.133 959.302 253.628L960.151 259.567C963.604 259.074 967.454 258.531 971.699 257.939L970.87 251.996ZM959.291 253.629C951.685 254.745 944.954 256.532 939.133 259.026L941.497 264.541C946.74 262.294 952.95 260.623 960.162 259.566L959.291 253.629ZM939.133 259.026C933.211 261.564 928.461 265.069 925.031 269.606L929.817 273.225C932.511 269.661 936.355 266.745 941.497 264.541L939.133 259.026ZM925.052 269.577C921.51 274.148 919.83 279.769 919.83 286.233H925.83C925.83 280.843 927.212 276.586 929.795 273.253L925.052 269.577ZM919.83 286.233C919.83 295.658 923.302 303.183 930.396 308.364L933.934 303.518C928.582 299.61 925.83 293.997 925.83 286.233H919.83ZM930.44 308.395C937.382 313.276 946.029 315.609 956.17 315.609V309.609C946.95 309.609 939.593 307.496 933.891 303.487L930.44 308.395ZM1178.36 220.294L1175.36 220.263L1175.36 220.279V220.294H1178.36ZM1178.36 351.876V354.876H1181.36V351.876H1178.36ZM1115.24 351.876H1112.24V354.876H1115.24V351.876ZM1115.24 124.274V121.274H1112.24V124.274H1115.24ZM1175.4 124.274H1178.4V121.274H1175.4V124.274ZM1175.4 164.431H1172.4V167.431H1175.4V164.431ZM1178.07 164.431V167.431H1180.14L1180.87 165.498L1178.07 164.431ZM1203.41 133.017L1205.04 135.532L1205.05 135.527L1205.06 135.522L1203.41 133.017ZM1287.87 131.683L1289.39 129.097L1287.87 131.683ZM1315.28 161.319L1312.61 162.677L1312.61 162.685L1315.28 161.319ZM1325.06 351.876V354.876H1328.06V351.876H1325.06ZM1261.94 351.876H1258.94V354.876H1261.94V351.876ZM1261.94 218.219L1258.94 218.198L1258.94 218.209V218.219H1261.94ZM1251.27 185.62L1249.05 187.642L1249.06 187.649L1249.06 187.656L1251.27 185.62ZM1198.96 179.248L1197.49 176.632L1197.48 176.636L1197.48 176.641L1198.96 179.248ZM1183.85 195.252L1181.19 193.865L1181.18 193.872L1181.18 193.88L1183.85 195.252ZM1175.36 220.294V351.876H1181.36V220.294H1175.36ZM1178.36 348.876H1115.24V354.876H1178.36V348.876ZM1118.24 351.876V124.274H1112.24V351.876H1118.24ZM1115.24 127.274H1175.4V121.274H1115.24V127.274ZM1172.4 124.274V164.431H1178.4V124.274H1172.4ZM1175.4 167.431H1178.07V161.431H1175.4V167.431ZM1180.87 165.498C1185.68 152.854 1193.72 142.89 1205.04 135.532L1201.77 130.501C1189.38 138.554 1180.53 149.533 1175.26 163.363L1180.87 165.498ZM1205.06 135.522C1216.33 128.098 1230.11 124.311 1246.53 124.311V118.311C1229.16 118.311 1214.19 122.327 1201.76 130.511L1205.06 135.522ZM1246.53 124.311C1261.88 124.311 1275.12 127.666 1286.35 134.269L1289.39 129.097C1277.1 121.871 1262.78 118.311 1246.53 118.311V124.311ZM1286.35 134.269C1297.58 140.877 1306.33 150.316 1312.61 162.677L1317.96 159.961C1311.19 146.638 1301.67 136.32 1289.39 129.097L1286.35 134.269ZM1312.61 162.685C1318.87 174.918 1322.06 189.64 1322.06 206.958H1328.06C1328.06 188.91 1324.73 173.207 1317.95 159.952L1312.61 162.685ZM1322.06 206.958V351.876H1328.06V206.958H1322.06ZM1325.06 348.876H1261.94V354.876H1325.06V348.876ZM1264.94 351.876V218.219H1258.94V351.876H1264.94ZM1264.94 218.241C1265.04 203.794 1261.34 192.104 1253.47 183.584L1249.06 187.656C1255.61 194.744 1259.03 204.787 1258.94 218.198L1264.94 218.241ZM1253.48 183.598C1245.6 174.958 1234.8 170.766 1221.48 170.766V176.766C1233.45 176.766 1242.51 180.476 1249.05 187.642L1253.48 183.598ZM1221.48 170.766C1212.55 170.766 1204.52 172.693 1197.49 176.632L1200.43 181.865C1206.44 178.494 1213.43 176.766 1221.48 176.766V170.766ZM1197.48 176.641C1190.52 180.602 1185.09 186.378 1181.19 193.865L1186.51 196.638C1189.91 190.098 1194.56 185.205 1200.44 181.856L1197.48 176.641ZM1181.18 193.88C1177.36 201.303 1175.47 210.134 1175.36 220.263L1181.36 220.324C1181.46 210.894 1183.22 203.03 1186.51 196.624L1181.18 193.88ZM1411.71 342.244L1410.08 344.765L1410.09 344.772L1410.1 344.778L1411.71 342.244ZM1378.52 302.681L1375.79 303.942L1375.8 303.951L1375.8 303.96L1378.52 302.681ZM1378.96 173.321L1381.66 174.632L1381.66 174.626L1378.96 173.321ZM1412.45 134.35L1414.02 136.903L1414.03 136.9L1412.45 134.35ZM1490.39 127.831L1489.02 130.501L1489.04 130.511L1489.06 130.52L1490.39 127.831ZM1511.13 143.834L1508.81 145.73L1508.83 145.749L1508.84 145.768L1511.13 143.834ZM1523.29 162.504L1520.55 163.739L1521.35 165.504H1523.29V162.504ZM1525.21 162.504V165.504H1528.21V162.504H1525.21ZM1525.21 48.407V45.407H1522.21V48.407H1525.21ZM1588.19 48.407H1591.19V45.407H1588.19V48.407ZM1588.19 351.876V354.876H1591.19V351.876H1588.19ZM1525.95 351.876H1522.95V354.876H1525.95V351.876ZM1525.95 315.424H1528.95V312.424H1525.95V315.424ZM1523.29 315.424V312.424H1521.38L1520.57 314.151L1523.29 315.424ZM1510.69 334.243L1508.43 332.27L1508.43 332.272L1510.69 334.243ZM1489.8 349.505L1488.52 346.791L1488.51 346.797L1489.8 349.505ZM1504.47 297.05L1506.32 299.406L1506.33 299.402L1504.47 297.05ZM1520.77 273.49L1517.96 272.418L1517.96 272.43L1517.95 272.442L1520.77 273.49ZM1520.91 202.809L1523.72 201.752L1520.91 202.809ZM1452.46 179.989L1450.59 177.637L1452.46 179.989ZM1436.3 273.193L1433.48 274.208L1433.49 274.224L1433.49 274.241L1436.3 273.193ZM1452.46 296.902L1450.56 299.225L1450.58 299.24L1450.59 299.254L1452.46 296.902ZM1458.68 352.58C1441.94 352.58 1426.84 348.284 1413.31 339.71L1410.1 344.778C1424.63 353.986 1440.85 358.58 1458.68 358.58V352.58ZM1413.33 339.724C1399.95 331.084 1389.23 318.363 1381.23 301.401L1375.8 303.96C1384.2 321.771 1395.61 335.426 1410.08 344.765L1413.33 339.724ZM1381.24 301.42C1373.37 284.434 1369.36 263.456 1369.36 238.371H1363.36C1363.36 264.063 1367.46 285.957 1375.79 303.942L1381.24 301.42ZM1369.36 238.371C1369.36 212.592 1373.52 191.392 1381.66 174.632L1376.26 172.011C1367.61 189.825 1363.36 211.992 1363.36 238.371H1369.36ZM1381.66 174.626C1389.85 157.661 1400.66 145.147 1414.02 136.903L1410.87 131.797C1396.38 140.742 1384.86 154.209 1376.26 172.017L1381.66 174.626ZM1414.03 136.9C1427.58 128.505 1442.39 124.311 1458.53 124.311V118.311C1441.29 118.311 1425.38 122.809 1410.87 131.8L1414.03 136.9ZM1458.53 124.311C1470.95 124.311 1481.07 126.431 1489.02 130.501L1491.76 125.16C1482.72 120.537 1471.6 118.311 1458.53 118.311V124.311ZM1489.06 130.52C1497.33 134.607 1503.88 139.69 1508.81 145.73L1513.46 141.938C1507.91 135.136 1500.64 129.549 1491.72 125.141L1489.06 130.52ZM1508.84 145.768C1514.04 151.926 1517.92 157.917 1520.55 163.739L1526.02 161.269C1523.12 154.842 1518.9 148.386 1513.43 141.899L1508.84 145.768ZM1523.29 165.504H1525.21V159.504H1523.29V165.504ZM1528.21 162.504V48.407H1522.21V162.504H1528.21ZM1525.21 51.407H1588.19V45.407H1525.21V51.407ZM1585.19 48.407V351.876H1591.19V48.407H1585.19ZM1588.19 348.876H1525.95V354.876H1588.19V348.876ZM1528.95 351.876V315.424H1522.95V351.876H1528.95ZM1525.95 312.424H1523.29V318.424H1525.95V312.424ZM1520.57 314.151C1517.74 320.178 1513.71 326.22 1508.43 332.27L1512.95 336.216C1518.53 329.819 1522.9 323.314 1526 316.697L1520.57 314.151ZM1508.43 332.272C1503.41 338.035 1496.8 342.888 1488.52 346.791L1491.08 352.219C1499.98 348.021 1507.3 342.7 1512.95 336.213L1508.43 332.272ZM1488.51 346.797C1480.52 350.606 1470.61 352.58 1458.68 352.58V358.58C1471.25 358.58 1482.09 356.504 1491.09 352.213L1488.51 346.797ZM1478.68 308.348C1489.43 308.348 1498.71 305.412 1506.32 299.406L1502.61 294.695C1496.2 299.752 1488.28 302.348 1478.68 302.348V308.348ZM1506.33 299.402C1513.94 293.373 1519.67 285.031 1523.58 274.537L1517.95 272.442C1514.36 282.101 1509.21 289.466 1502.6 294.698L1506.33 299.402ZM1523.57 274.561C1527.58 264.068 1529.55 251.885 1529.55 238.075H1523.55C1523.55 251.332 1521.66 262.759 1517.96 272.418L1523.57 274.561ZM1529.55 238.075C1529.55 224.274 1527.63 212.145 1523.72 201.752L1518.11 203.865C1521.7 213.427 1523.55 224.809 1523.55 238.075H1529.55ZM1523.72 201.752C1519.81 191.35 1514.07 183.144 1506.44 177.309L1502.79 182.077C1509.38 187.108 1514.51 194.312 1518.11 203.865L1523.72 201.752ZM1506.44 177.309C1498.73 171.422 1489.42 168.543 1478.68 168.543V174.543C1488.29 174.543 1496.27 177.097 1502.79 182.077L1506.44 177.309ZM1478.68 168.543C1467.74 168.543 1458.31 171.528 1450.59 177.637L1454.32 182.341C1460.83 177.189 1468.89 174.543 1478.68 174.543V168.543ZM1450.59 177.637C1442.98 183.667 1437.3 191.963 1433.49 202.369L1439.12 204.433C1442.62 194.885 1447.71 187.573 1454.32 182.341L1450.59 177.637ZM1433.49 202.369C1429.69 212.745 1427.82 224.665 1427.82 238.075H1433.82C1433.82 225.208 1435.61 214.012 1439.12 204.433L1433.49 202.369ZM1427.82 238.075C1427.82 251.583 1429.69 263.644 1433.48 274.208L1439.13 272.179C1435.61 262.393 1433.82 251.042 1433.82 238.075H1427.82ZM1433.49 274.241C1437.4 284.722 1443.06 293.101 1450.56 299.225L1454.35 294.579C1447.82 289.244 1442.72 281.817 1439.12 272.146L1433.49 274.241ZM1450.59 299.254C1458.31 305.363 1467.74 308.348 1478.68 308.348V302.348C1468.89 302.348 1460.83 299.702 1454.32 294.55L1450.59 299.254Z" fill="#EC1C24" mask="url(#path-1-outside-1_4003_2)"/>
<rect x="571" y="405.876" width="1015" height="142" stroke="url(#paint0_linear_4003_2)" stroke-width="2"/>
<path d="M578.046 330.24V477.876H546.832V330.24H578.046ZM727.214 330.24V477.876H700.253L636.023 384.954H634.941V477.876H603.727V330.24H631.121L694.847 423.089H696.144V330.24H727.214ZM833.093 372.699C832.517 366.884 830.042 362.367 825.668 359.147C821.295 355.927 815.36 354.317 807.863 354.317C802.768 354.317 798.467 355.038 794.959 356.48C791.451 357.873 788.759 359.82 786.885 362.319C785.059 364.818 784.146 367.653 784.146 370.825C784.049 373.468 784.602 375.775 785.804 377.746C787.053 379.716 788.759 381.422 790.922 382.864C793.085 384.258 795.584 385.483 798.419 386.54C801.254 387.55 804.282 388.415 807.502 389.136L820.766 392.307C827.206 393.749 833.117 395.672 838.5 398.074C843.883 400.477 848.544 403.433 852.485 406.941C856.426 410.45 859.478 414.583 861.64 419.34C863.851 424.098 864.98 429.553 865.028 435.704C864.98 444.739 862.674 452.573 858.108 459.205C853.59 465.789 847.054 470.907 838.5 474.56C829.994 478.164 819.733 479.967 807.718 479.967C795.8 479.967 785.419 478.14 776.576 474.488C767.782 470.835 760.909 465.429 755.959 458.268C751.057 451.059 748.486 442.144 748.246 431.523H778.451C778.787 436.473 780.205 440.606 782.704 443.922C785.251 447.19 788.639 449.666 792.868 451.348C797.145 452.982 801.975 453.799 807.358 453.799C812.644 453.799 817.234 453.03 821.127 451.492C825.068 449.954 828.119 447.815 830.282 445.076C832.445 442.337 833.526 439.189 833.526 435.632C833.526 432.316 832.541 429.529 830.57 427.27C828.648 425.011 825.813 423.089 822.064 421.503C818.363 419.917 813.822 418.475 808.439 417.178L792.364 413.141C779.916 410.113 770.088 405.379 762.88 398.94C755.671 392.5 752.09 383.825 752.138 372.916C752.09 363.977 754.469 356.167 759.275 349.487C764.129 342.807 770.785 337.593 779.244 333.844C787.702 330.095 797.314 328.221 808.079 328.221C819.036 328.221 828.6 330.095 836.77 333.844C844.988 337.593 851.38 342.807 855.945 349.487C860.511 356.167 862.866 363.905 863.01 372.699H833.093ZM977.215 330.24H1008.43V426.117C1008.43 436.882 1005.86 446.301 1000.72 454.375C995.622 462.449 988.485 468.745 979.306 473.262C970.127 477.732 959.434 479.967 947.227 479.967C934.972 479.967 924.255 477.732 915.076 473.262C905.896 468.745 898.76 462.449 893.665 454.375C888.571 446.301 886.024 436.882 886.024 426.117V330.24H917.238V423.449C917.238 429.072 918.464 434.07 920.915 438.444C923.414 442.817 926.922 446.253 931.44 448.752C935.957 451.251 941.219 452.501 947.227 452.501C953.282 452.501 958.545 451.251 963.014 448.752C967.532 446.253 971.016 442.817 973.467 438.444C975.966 434.07 977.215 429.072 977.215 423.449V330.24ZM1034.11 477.876V330.24H1092.36C1103.51 330.24 1113.02 332.234 1120.91 336.223C1128.83 340.164 1134.87 345.763 1139 353.019C1143.18 360.228 1145.27 368.711 1145.27 378.467C1145.27 388.271 1143.16 396.705 1138.93 403.769C1134.7 410.786 1128.57 416.169 1120.54 419.917C1112.57 423.666 1102.91 425.54 1091.57 425.54H1052.57V400.453H1086.52C1092.48 400.453 1097.43 399.636 1101.37 398.002C1105.31 396.368 1108.24 393.917 1110.16 390.649C1112.13 387.381 1113.12 383.32 1113.12 378.467C1113.12 373.565 1112.13 369.431 1110.16 366.067C1108.24 362.703 1105.29 360.156 1101.3 358.426C1097.36 356.648 1092.38 355.759 1086.37 355.759H1065.33V477.876H1034.11ZM1113.84 410.69L1150.53 477.876H1116.08L1080.18 410.69H1113.84ZM1167.33 477.876V330.24H1266.81V355.975H1198.54V391.154H1261.69V416.889H1198.54V452.141H1267.1V477.876H1167.33ZM1343.96 477.876H1291.63V330.24H1344.4C1359.25 330.24 1372.03 333.195 1382.75 339.106C1393.46 344.97 1401.71 353.404 1407.47 364.409C1413.29 375.415 1416.2 388.583 1416.2 403.914C1416.2 419.292 1413.29 432.509 1407.47 443.562C1401.71 454.616 1393.42 463.098 1382.6 469.009C1371.84 474.92 1358.96 477.876 1343.96 477.876ZM1322.84 451.131H1342.67C1351.89 451.131 1359.65 449.497 1365.95 446.229C1372.29 442.913 1377.05 437.795 1380.22 430.875C1383.44 423.906 1385.05 414.919 1385.05 403.914C1385.05 393.004 1383.44 384.089 1380.22 377.169C1377.05 370.248 1372.32 365.154 1366.02 361.886C1359.73 358.618 1351.97 356.984 1342.74 356.984H1322.84V451.131Z" fill="white"/>
<rect x="13" y="22.876" width="811" height="191" stroke="url(#paint1_linear_4003_2)" stroke-width="2"/>
<path d="M221.501 215.058C221.501 231.157 218.45 244.854 212.346 256.148C206.291 267.442 198.025 276.068 187.548 282.028C177.119 287.939 165.393 290.894 152.369 290.894C139.249 290.894 127.475 287.915 117.046 281.956C106.617 275.996 98.375 267.37 92.3196 256.076C86.2642 244.782 83.2365 231.109 83.2365 215.058C83.2365 198.958 86.2642 185.261 92.3196 173.968C98.375 162.674 106.617 154.071 117.046 148.16C127.475 142.201 139.249 139.221 152.369 139.221C165.393 139.221 177.119 142.201 187.548 148.16C198.025 154.071 206.291 162.674 212.346 173.968C218.45 185.261 221.501 198.958 221.501 215.058ZM189.855 215.058C189.855 204.629 188.293 195.834 185.169 188.674C182.093 181.513 177.744 176.082 172.121 172.382C166.498 168.681 159.914 166.831 152.369 166.831C144.824 166.831 138.24 168.681 132.617 172.382C126.994 176.082 122.621 181.513 119.497 188.674C116.421 195.834 114.883 204.629 114.883 215.058C114.883 225.487 116.421 234.281 119.497 241.442C122.621 248.603 126.994 254.033 132.617 257.734C138.24 261.434 144.824 263.285 152.369 263.285C159.914 263.285 166.498 261.434 172.121 257.734C177.744 254.033 182.093 248.603 185.169 241.442C188.293 234.281 189.855 225.487 189.855 215.058ZM272.305 288.876L230.062 141.24H264.16L288.597 243.821H289.823L316.784 141.24H345.979L372.868 244.037H374.166L398.604 141.24H432.701L390.458 288.876H360.037L331.922 192.35H330.769L302.727 288.876H272.305ZM572.895 141.24V288.876H545.934L481.703 195.954H480.622V288.876H449.408V141.24H476.801L540.527 234.089H541.825V141.24H572.895ZM598.684 288.876V141.24H698.166V166.975H629.898V202.154H693.048V227.889H629.898V263.141H698.454V288.876H598.684ZM775.318 288.876H722.982V141.24H775.751C790.601 141.24 803.384 144.195 814.101 150.106C824.818 155.97 833.061 164.404 838.828 175.409C844.643 186.415 847.55 199.583 847.55 214.914C847.55 230.292 844.643 243.509 838.828 254.562C833.061 265.616 824.77 274.098 813.957 280.009C803.192 285.92 790.312 288.876 775.318 288.876ZM754.196 262.131H774.02C783.248 262.131 791.009 260.497 797.305 257.229C803.649 253.913 808.406 248.795 811.578 241.875C814.798 234.906 816.408 225.919 816.408 214.914C816.408 204.004 814.798 195.089 811.578 188.169C808.406 181.248 803.673 176.154 797.377 172.886C791.081 169.618 783.32 167.984 774.093 167.984H754.196V262.131Z" fill="white"/>
</g>
<defs>
<linearGradient id="paint0_linear_4003_2" x1="1421.43" y1="600.402" x2="1151.02" y2="162.606" gradientUnits="userSpaceOnUse">
<stop stop-color="#FFA500"/>
<stop offset="1" stop-color="#996300" stop-opacity="0.11"/>
</linearGradient>
<linearGradient id="paint1_linear_4003_2" x1="12" y1="21.876" x2="734.16" y2="451.719" gradientUnits="userSpaceOnUse">
<stop stop-color="#FFA500"/>
<stop offset="1" stop-color="#996300" stop-opacity="0"/>
</linearGradient>
<clipPath id="clip0_4003_2">
<rect width="1615" height="576" fill="white"/>
</clipPath>
</defs>
</svg>
