<svg width="359" height="211" viewBox="0 0 359 211" fill="none" xmlns="http://www.w3.org/2000/svg">
<g clip-path="url(#clip0_117_50)">
<mask id="mask0_117_50" style="mask-type:luminance" maskUnits="userSpaceOnUse" x="110" y="0" width="93" height="55">
<path d="M110.895 0.24826H202.222V54.099H110.895V0.24826Z" fill="white"/>
</mask>
<g mask="url(#mask0_117_50)">
<path d="M197.133 0.282104C196.975 0.282104 196.806 0.282104 196.636 0.282104C196.602 0.282104 196.557 0.282104 196.523 0.282104H170.253C170.253 0.282104 182.846 1.21874 179.032 2.49391C178.671 2.58419 178.31 2.67447 177.949 2.77603C177.904 2.78731 177.859 2.7986 177.802 2.80988L177.847 2.7986C176.437 3.18228 175.037 3.59981 173.649 4.06249C173.694 4.02863 173.717 4.01735 173.717 4.01735H151.102C151.102 4.01735 166.924 5.71005 166.743 6.66926C164.543 7.62846 162.387 8.68922 160.288 9.82898L122.022 9.84027C122.022 9.84027 153.021 12.1536 151.08 15.6406C149.658 16.6901 148.27 17.7847 146.927 18.9132H110.895C110.895 18.9132 137.087 22.4114 139.795 25.6953C132.494 33.5946 127.089 42.8594 124.516 52.8012H126.389C133.713 24.5668 164.599 1.95224 196.264 1.96353C196.422 1.96353 196.591 1.96353 196.76 1.96353C196.76 1.96353 201.455 2.17794 201.534 1.54599C201.681 0.282105 197.133 0.282104 197.133 0.282104Z" fill="#B71622"/>
</g>
<path d="M133.701 40.9748L144.489 43.6267C143.09 46.2222 141.95 48.9306 141.115 51.7066H129.334C130.383 48.0165 131.862 44.4279 133.701 40.9748Z" fill="#E6E6E6"/>
<path d="M141.996 29.0582L151.103 34.2153C148.925 36.6866 146.984 39.3386 145.347 42.1146L134.548 39.4627C136.636 35.7951 139.152 32.3082 141.996 29.0582Z" fill="#E6E6E6"/>
<path d="M153.246 18.7101L159.871 26.1806C157.151 28.2005 154.623 30.4462 152.332 32.8611L143.214 27.704C146.239 24.4314 149.602 21.4184 153.246 18.7101Z" fill="#E6E6E6"/>
<path d="M166.484 10.8108L170.253 19.974C167.149 21.4297 164.182 23.145 161.394 25.0859L154.759 17.6042C158.438 15.02 162.376 12.7292 166.484 10.8108Z" fill="#E6E6E6"/>
<path d="M180.759 5.8342L181.503 16.0356C178.231 16.8142 175.049 17.8863 171.968 19.2066L168.199 10.0321C172.239 8.26041 176.459 6.84982 180.759 5.8342Z" fill="#E6E6E6"/>
<path d="M195.327 4.01736L192.946 14.5799C189.696 14.6363 186.469 15.0087 183.298 15.6519L182.553 5.43924C186.751 4.57032 191.028 4.07379 195.327 4.01736Z" fill="#E6E6E6"/>
<mask id="mask1_117_50" style="mask-type:luminance" maskUnits="userSpaceOnUse" x="164" y="5" width="59" height="50">
<path d="M164.667 5.77777H222.444V54.099H164.667V5.77777Z" fill="white"/>
</mask>
<g mask="url(#mask1_117_50)">
<path d="M184.776 46.5382H170.771C170.771 46.5382 183.975 47.5312 183.151 49.0208C183.151 49.0208 183.162 49.0095 183.173 49.0095C182.248 51.3003 183.67 52.3273 183.76 52.3837C183.76 52.3837 185.825 54.0651 188.692 50.8151C191.569 47.5651 217.242 11.7474 217.242 11.7474C217.242 11.7474 219.138 9.17448 219.488 8.11371C219.533 7.98958 219.612 7.78646 219.578 7.80903C219.578 7.76389 219.431 7.85417 219.273 7.95573C218.303 8.5651 216.192 10.98 216.192 10.98C216.192 10.98 213.089 14.4332 208.823 19.2066H193.758C193.758 19.2066 204.287 19.9965 207.007 21.2491C204.964 23.5286 202.752 26.0113 200.518 28.5278H179.596C179.596 28.5278 198.317 29.9271 197.403 32.0486C195.62 34.046 193.905 36.0095 192.303 37.8151L166.731 37.8264C166.731 37.8264 189.639 39.5304 188.206 42.1146L184.776 46.5382Z" fill="#B3B3B3"/>
</g>
<mask id="mask2_117_50" style="mask-type:luminance" maskUnits="userSpaceOnUse" x="228" y="40" width="15" height="12">
<path d="M228.222 40.4445H242.294V52H228.222V40.4445Z" fill="white"/>
</mask>
<g mask="url(#mask2_117_50)">
<path d="M242.012 41.0087L230.028 43.6493C230.253 46.2448 230.174 48.9531 229.746 51.7292H241.527C242.148 48.0391 242.294 44.4505 242.012 41.0087Z" fill="#EC1C24"/>
</g>
<mask id="mask3_117_50" style="mask-type:luminance" maskUnits="userSpaceOnUse" x="225" y="28" width="18" height="16">
<path d="M225.333 28.8889H242.294V43.3333H225.333V28.8889Z" fill="white"/>
</mask>
<g mask="url(#mask3_117_50)">
<path d="M239.101 29.0807L227.669 34.2266C228.741 36.7092 229.475 39.3498 229.859 42.1259L241.854 39.4965C241.414 35.8177 240.489 32.3307 239.101 29.0807Z" fill="#EC1C24"/>
</g>
<path d="M232.533 18.7326L222.523 26.1918C224.34 28.2118 225.852 30.4575 227.049 32.8837L238.491 27.7266C236.945 24.454 234.948 21.441 232.533 18.7326Z" fill="#EC1C24"/>
<path d="M222.862 10.8221L214.951 19.9852C217.4 21.441 219.589 23.1563 221.508 25.0972L231.506 17.6267C229.012 15.0313 226.112 12.7405 222.862 10.8221Z" fill="#EC1C24"/>
<path d="M215.019 9.9757C215.245 9.70486 216.091 8.75695 216.971 7.91059C215.008 7.10938 212.965 6.40972 210.832 5.84549L205.483 16.0469C206.578 16.3403 207.639 16.6901 208.677 17.0625C212.401 12.8872 215.019 9.9757 215.019 9.9757Z" fill="#EC1C24"/>
<path d="M197.088 4.01736L194.707 14.5799C197.923 14.6363 200.981 15.0087 203.858 15.6519L209.219 5.45052C205.416 4.57032 201.365 4.08507 197.088 4.01736Z" fill="#EC1C24"/>
<path d="M81.1471 103.317C77.3216 103.317 73.7895 102.979 70.5395 102.324C67.2895 101.67 64.8294 100.914 63.1367 100.067L65.8902 88.2408H79.0707C78.7661 89.4821 78.8451 90.3849 79.2964 90.9492C79.7478 91.4908 80.707 91.7617 82.1853 91.7617C83.4154 91.7617 84.3294 91.5811 84.9388 91.22C85.5707 90.8363 85.9544 90.2495 86.1124 89.4596C86.2591 88.8276 86.1237 88.286 85.7062 87.8346C85.2773 87.3832 84.4987 86.9205 83.3589 86.4353L78.6194 84.6297C74.6133 82.9821 71.8937 81.0073 70.4492 78.7165C69.0273 76.437 68.7791 73.3676 69.6819 69.5082C70.7878 64.8137 73.1688 61.2478 76.8138 58.8103C80.4475 56.3502 85.8867 55.1089 93.1089 55.1089C96.5621 55.1089 99.7444 55.4587 102.633 56.1471C105.522 56.8467 107.757 57.7608 109.359 58.9006L106.921 69.6436H94.9596C95.411 67.6349 94.3954 66.6193 91.9353 66.6193C90.7279 66.6193 89.8364 66.7773 89.2721 67.0707C88.7305 67.3754 88.3694 67.9058 88.1888 68.6506C88.0308 69.3502 88.2001 69.8919 88.6853 70.2756C89.1593 70.6705 90.0169 71.0881 91.2582 71.5394L96.043 73.345C99.8911 74.7669 102.52 76.6289 103.942 78.9422C105.387 81.233 105.658 84.2235 104.755 87.9249C103.604 92.9804 101.031 96.8172 97.036 99.4353C93.0299 102.031 87.7374 103.317 81.1471 103.317Z" fill="white"/>
<path d="M108.2 92.6644H111.179L117.408 65.7165H114.384L116.686 55.9214H142.911C148.057 55.9214 151.725 57.0386 153.925 59.2617C156.114 61.4622 156.656 65.0394 155.55 70.0047C154.399 74.9474 152.21 78.5247 148.96 80.7478C145.733 82.9483 141.557 84.0429 136.411 84.0429H129.911L127.925 92.6644H133.658L131.401 102.46H105.897L108.2 92.6644ZM133.884 75.5568C136.197 75.5568 137.653 74.2816 138.262 71.72L138.759 69.5533C139.052 68.2669 138.984 67.2964 138.533 66.6644C138.104 66.0325 137.325 65.7165 136.186 65.7165H134.154L131.852 75.5568H133.884Z" fill="white"/>
<path d="M152.847 102.46L155.149 92.6644H158.128L164.358 65.7165H161.333L163.635 55.9214H203.99L199.792 73.9769H186.431L188.326 65.7165H181.104L178.892 75.1957H184.128L182.594 82.0117H177.312L174.875 92.6644H182.097L184.309 83.1853H197.715L193.246 102.46H152.847Z" fill="white"/>
<path d="M198.301 102.46L200.603 92.6644H203.583L209.812 65.7165H206.787L209.089 55.9214H249.444L245.246 73.9769H231.885L233.78 65.7165H226.558L224.346 75.1957H229.583L228.048 82.0117H222.767L220.329 92.6644H227.551L229.763 83.1853H243.169L238.701 102.46H198.301Z" fill="white"/>
<path d="M246.057 92.6644H249.037L255.266 65.8068H252.241L254.544 55.9214H278.828C285.475 55.9214 290.339 57.7608 293.408 61.4283C296.5 65.0733 297.11 70.9978 295.214 79.2131C293.284 87.4283 289.932 93.3641 285.148 96.9978C280.386 100.643 274.687 102.46 268.04 102.46H243.755L246.057 92.6644ZM269.259 92.6644C270.613 92.6644 271.696 92.3033 272.509 91.5811C273.344 90.8589 273.953 89.753 274.314 88.2408L278.512 70.1853C279.201 67.2061 278.174 65.7165 275.443 65.7165H272.012L265.783 92.6644H269.259Z" fill="white"/>
<mask id="mask4_117_50" style="mask-type:luminance" maskUnits="userSpaceOnUse" x="318" y="98" width="41" height="4">
<path d="M318.906 98.9445H358.888V101.596H318.906V98.9445Z" fill="white"/>
</mask>
<g mask="url(#mask4_117_50)">
<path d="M282.716 98.9557C281.509 100.005 280.098 100.897 278.484 101.596C305.342 101.247 332.132 100.852 358.888 100.411C333.543 99.9601 308.163 99.4748 282.716 98.9557Z" fill="#FFA500"/>
</g>
<mask id="mask5_117_50" style="mask-type:luminance" maskUnits="userSpaceOnUse" x="318" y="95" width="38" height="7">
<path d="M318.906 95.3333H355.333V101.111H318.906V95.3333Z" fill="white"/>
</mask>
<g mask="url(#mask5_117_50)">
<path d="M285.752 95.4236C284.939 96.7101 283.935 97.9063 282.728 98.9557C306.933 98.4253 331.094 97.8724 355.198 97.2743C332.098 96.6875 308.953 96.0668 285.752 95.4236Z" fill="#FFA500"/>
</g>
<mask id="mask6_117_50" style="mask-type:luminance" maskUnits="userSpaceOnUse" x="318" y="89" width="35" height="10">
<path d="M318.906 89.5555H352.444V98.2222H318.906V89.5555Z" fill="white"/>
</mask>
<g mask="url(#mask6_117_50)">
<path d="M287.569 91.2821C287.163 92.7265 286.553 94.1259 285.752 95.4123C307.317 94.7691 328.837 94.1033 350.312 93.4036C329.446 92.7153 308.536 92.0043 287.569 91.2821Z" fill="#FFA500"/>
</g>
<mask id="mask7_117_50" style="mask-type:luminance" maskUnits="userSpaceOnUse" x="318" y="86" width="29" height="7">
<path d="M318.906 86.6667H346.667V92.4444H318.906V86.6667Z" fill="white"/>
</mask>
<g mask="url(#mask7_117_50)">
<path d="M288.166 86.8585C288.166 88.3481 287.975 89.8377 287.568 91.2821C306.493 90.5599 325.372 89.8264 344.206 89.0929C325.575 88.3481 306.899 87.6033 288.166 86.8585Z" fill="#FFA500"/>
</g>
<mask id="mask8_117_50" style="mask-type:luminance" maskUnits="userSpaceOnUse" x="318" y="80" width="20" height="10">
<path d="M318.906 80.8889H338V89.5556H318.906V80.8889Z" fill="white"/>
</mask>
<g mask="url(#mask8_117_50)">
<path d="M287.568 82.4236C287.975 83.8681 288.166 85.3576 288.166 86.8472C304.462 86.1024 320.7 85.3576 336.894 84.6241C320.497 83.8793 304.055 83.1458 287.568 82.4236Z" fill="#FFA500"/>
</g>
<mask id="mask9_117_50" style="mask-type:luminance" maskUnits="userSpaceOnUse" x="318" y="78" width="12" height="6">
<path d="M318.906 78H329.333V83.7778H318.906V78Z" fill="white"/>
</mask>
<g mask="url(#mask9_117_50)">
<path d="M285.752 78.2934C286.553 79.5799 287.163 80.9792 287.569 82.4236C301.212 81.7014 314.821 80.9904 328.363 80.3021C314.212 79.6137 300.005 78.9366 285.752 78.2934Z" fill="#FFA500"/>
</g>
<mask id="mask10_117_50" style="mask-type:luminance" maskUnits="userSpaceOnUse" x="1" y="98" width="46" height="4">
<path d="M1.00439 98.5382H46.1546V101.596H1.00439V98.5382Z" fill="white"/>
</mask>
<g mask="url(#mask10_117_50)">
<path d="M88.7318 98.5495C90.1311 99.757 91.7561 100.795 93.6181 101.596C62.6867 101.19 31.823 100.739 1.00439 100.22C30.198 99.7118 59.4367 99.1589 88.7318 98.5495Z" fill="#FFA500"/>
</g>
<mask id="mask11_117_50" style="mask-type:luminance" maskUnits="userSpaceOnUse" x="2" y="92" width="45" height="10">
<path d="M2.88867 92.4445H46.1543V101.111H2.88867V92.4445Z" fill="white"/>
</mask>
<g mask="url(#mask11_117_50)">
<path d="M85.2445 94.4757C86.1811 95.9653 87.3434 97.342 88.7314 98.5495C60.8469 97.9514 33.0188 97.3082 5.24707 96.6198C31.8564 95.9427 58.5222 95.2205 85.2445 94.4757Z" fill="#FFA500"/>
</g>
<mask id="mask12_117_50" style="mask-type:luminance" maskUnits="userSpaceOnUse" x="8" y="89" width="39" height="7">
<path d="M8.6665 89.5555H46.1544V95.3333H8.6665V89.5555Z" fill="white"/>
</mask>
<g mask="url(#mask12_117_50)">
<path d="M83.157 89.7248C83.6197 91.3837 84.3193 92.9861 85.2447 94.4757C60.407 93.7309 35.6145 92.9635 10.8896 92.1623C34.9148 91.3724 59.0077 90.5486 83.157 89.7248Z" fill="#FFA500"/>
</g>
<mask id="mask13_117_50" style="mask-type:luminance" maskUnits="userSpaceOnUse" x="17" y="83" width="30" height="10">
<path d="M17.3335 83.7778H46.1547V92.4444H17.3335V83.7778Z" fill="white"/>
</mask>
<g mask="url(#mask13_117_50)">
<path d="M82.4577 84.6129C82.4577 86.3394 82.6947 88.0547 83.1574 89.7135C61.3553 88.8898 39.6096 88.0434 17.9204 87.1858C39.3727 86.3394 60.8926 85.4705 82.4577 84.6129Z" fill="#FFA500"/>
</g>
<mask id="mask14_117_50" style="mask-type:luminance" maskUnits="userSpaceOnUse" x="26" y="78" width="21" height="9">
<path d="M26 78H46.1545V86.6667H26V78Z" fill="white"/>
</mask>
<g mask="url(#mask14_117_50)">
<path d="M83.157 79.5121C82.6943 81.171 82.4573 82.8976 82.4573 84.6128C63.6908 83.7552 44.992 82.8976 26.3384 82.0399C45.2177 81.1936 64.1648 80.3472 83.157 79.5121Z" fill="#FFA500"/>
</g>
<mask id="mask15_117_50" style="mask-type:luminance" maskUnits="userSpaceOnUse" x="34" y="72" width="13" height="9">
<path d="M34.6665 72.2222H46.1543V80.8889H34.6665V72.2222Z" fill="white"/>
</mask>
<g mask="url(#mask15_117_50)">
<path d="M85.2448 74.75C84.3195 76.2396 83.6198 77.842 83.1571 79.5122C67.4375 78.6771 51.7743 77.8646 36.1562 77.0634C52.4627 76.2734 68.8255 75.4948 85.2448 74.75Z" fill="#FFA500"/>
</g>
<path d="M186.546 151.487C186.614 151.126 186.614 150.686 186.681 150.313C186.67 149.941 186.738 149.58 186.806 149.207C186.873 148.767 186.93 148.248 186.93 147.808L186.918 147.74C188.148 138.532 189.503 131.897 190.439 126.954C191.319 122.677 191.997 119.292 191.534 118.411L191.455 118.276L191.387 118.05C191.376 117.836 191.082 117.542 190.642 117.475H190.563L190.417 117.486C190.191 117.339 189.898 117.339 189.683 117.272L189.457 117.283C189.017 117.215 186.004 116.899 182.055 126.085C179.042 130.328 174.505 151.487 173.275 152.909H173.061C172.598 151.746 172.102 140.213 171.887 132.506C172.158 127.292 172.497 121.921 172.564 121.255C172.756 120.002 172.384 119.641 172.011 119.359C171.267 118.93 170.307 118.581 169.122 118.163C167.644 117.746 166.098 117.554 164.496 117.734C164.349 117.802 164.056 117.881 163.83 118.039C163.694 118.107 163.548 118.186 163.322 118.265C163.254 118.344 163.175 118.411 163.04 118.716C162.972 118.93 162.826 119.156 162.611 119.45C161.607 120.499 160.67 121.763 160.106 123.094C159.756 123.986 159.327 124.798 158.977 125.622C158.481 126.728 157.984 127.834 157.567 128.872C156.732 131.163 156.032 133.386 155.411 135.53C154.52 138.848 153.899 141.432 153.504 143.791C153.03 146.443 152.647 149.162 152.477 151.882C152.24 155.561 152.082 158.799 152.139 161.733C152.173 163.866 152.432 166.067 152.692 168.267L152.782 169.068C153.042 171.19 153.369 173.176 153.775 175.004C154.339 177.927 155.265 180.342 156.551 182.441C157.082 183.242 157.375 183.389 157.747 183.377C158.628 183.287 159.497 183.05 160.377 182.813H160.523C161.765 182.497 162.555 181.019 162.871 178.514C162.859 177.927 163.187 171.743 163.457 166.304C163.728 160.797 163.92 155.504 163.988 154.759C164.168 152.92 164.812 147.548 165.015 146.668L165.624 143.712L165.929 144.366C166.471 145.754 167.486 149.038 168.423 152.254C168.897 154.308 169.45 156.43 170.003 158.472C170.161 158.912 170.307 159.206 170.465 159.42C170.465 159.42 170.465 159.42 170.533 159.488C170.533 159.488 170.533 159.488 170.533 159.567C170.838 159.86 171.955 160.932 173.636 160.469C174.076 160.526 174.302 160.379 174.438 160.154C176.909 158.788 179.933 146.905 179.933 146.838C180.159 147.199 180.17 147.785 180.102 148.372C180.035 148.891 179.978 149.704 179.922 150.437C179.73 151.904 179.606 153.529 179.549 154.331C179.516 156.689 179.64 159.104 179.674 161.384L179.696 162.489C179.798 164.171 179.832 166.01 180.091 167.692C180.351 169.892 180.757 172.093 181.231 174.135C181.626 175.817 182.258 177.938 183.104 179.981C183.409 180.714 184.086 181.504 185.045 182.226C185.643 182.723 186.309 182.937 187.043 182.847L187.629 182.836C187.855 182.757 188.148 182.678 188.363 182.531H188.431C188.792 182.226 189.085 181.854 189.142 181.2C189.277 180.68 188.961 178.999 188.487 177.092C187.438 171.969 185.587 163.483 186.557 151.78L186.546 151.487Z" fill="white"/>
<path d="M219.056 158.026C218.244 157.451 217.138 157.699 216.573 158.511C215.355 160.441 213.606 161.287 211.326 161.254C210.672 161.265 210.006 161.129 209.487 160.994C209.532 159.155 209.577 157.609 209.577 157.609C209.408 156.661 209.25 155.781 209.092 154.979C209.001 154.246 208.911 153.512 208.606 152.858C207.692 150.883 205.819 149.235 203.404 149.348C202.231 149.371 201.125 149.608 199.962 149.777C199.579 149.123 199.139 149.055 198.416 149.585C198.044 149.811 197.683 150.037 197.468 150.409C197.254 150.714 197.04 150.86 196.825 151.007C193.417 149.461 192.052 151.391 192.052 151.391C191.702 152.429 191.431 153.309 191.149 154.268C190.799 155.386 190.461 156.559 190.257 157.744C189.93 159.956 189.603 162.089 189.343 164.3C189.231 165.767 189.253 167.313 189.434 168.769C189.535 170.462 189.851 172.143 190.178 173.825C190.596 176.251 191.149 178.587 192.514 180.697C193.79 182.649 195.437 184.162 197.999 183.97C198.518 183.958 199.105 183.879 199.691 183.868C202.039 183.755 203.788 182.762 205.074 181.126C207.534 178.88 208.719 171.511 209.159 167.392C209.227 166.952 209.283 165.846 209.329 164.594C210.073 164.729 210.875 164.786 211.687 164.774C214.407 164.718 217.397 163.714 219.541 160.441C220.117 159.629 219.88 158.523 219.056 158.026ZM202.027 154.291C202.445 153.332 203.788 154.268 203.788 154.268C204.533 155.137 205.21 156.006 205.379 157.101C205.842 158.41 205.876 160.182 205.876 160.182C205.876 160.182 204.465 159.471 203.415 158.162C202.592 157.146 201.599 155.261 202.027 154.291ZM201.068 178.553C200.989 178.553 200.922 178.553 200.843 178.553C195.618 177.628 198.157 155.984 198.157 155.984C198.157 155.984 200.053 159.031 201.474 160.701C201.553 160.701 201.553 160.768 201.621 160.768C203.122 162.359 205.56 163.341 205.56 163.341C205.56 163.341 204.149 178.643 201.068 178.553Z" fill="white"/>
<path d="M244.383 157.28C243.491 156.93 242.397 157.314 242.047 158.206C240.072 162.719 238.616 163.114 238.176 163.114C237.736 163.126 237.217 162.765 236.687 162.268C236.687 161.975 236.675 161.749 236.675 161.681C236.946 160.203 237.431 158.725 237.849 157.246C237.984 156.581 238.188 155.915 238.323 155.26C238.458 154.662 238.594 154.075 238.729 153.488C238.729 153.488 240.986 148.151 238.379 146.289C235.773 144.359 231.586 143.84 230.017 147.034C228.392 150.295 228.652 152.495 228.652 152.495C228.652 152.495 228.415 155.429 229.622 157.619C229.622 157.686 230.627 160.248 231.394 162.291C231.71 163.238 231.947 164.107 232.184 164.773C232.184 164.773 228.009 182.186 225.729 181.712C222.795 181.757 225.628 151.886 225.628 151.886C225.537 151.085 225.379 150.272 225.075 149.55C224.759 148.67 223.879 148.467 222.919 148.264C219.681 147.733 218.247 149.821 217.695 151.593C217.559 152.394 217.424 153.139 217.221 153.872C216.882 155.712 216.543 157.562 216.216 159.402C216.149 160.067 216.092 160.722 215.957 161.388C215.957 161.613 215.968 161.76 215.968 161.907C215.708 163.667 215.031 170.957 216.408 178.134C216.566 178.642 216.724 179.229 216.882 179.816C217.503 181.858 219.071 183.449 221.001 184.657C221.531 185.018 222.039 185.153 222.558 185.289C222.558 185.289 222.558 185.289 222.637 185.289C224.251 185.56 225.718 185.526 226.959 185.142C231.27 183.811 233.38 178.337 235.874 166.094C236.54 166.376 237.285 166.658 238.086 166.646C238.165 166.646 238.233 166.646 238.233 166.646C240.952 166.59 243.266 164.277 245.308 159.605C245.658 158.725 245.274 157.698 244.383 157.28ZM235.05 153.116C234.859 154.436 234.655 155.689 234.385 156.942C234.385 156.942 231.496 151.491 233.888 149.381C236.19 147.214 235.254 151.784 235.05 153.116Z" fill="white"/>
<path d="M246.609 150.626C248.279 149.712 249.069 148.154 249.396 146.383C249.735 144.915 249.859 143.437 250.197 141.97C250.479 140.853 249.723 139.849 248.696 139.713C247.365 139.521 245.097 139.781 244.837 141.767C244.713 143.087 244.002 144.284 243.652 145.536C243.246 147.308 243.72 148.989 245.063 150.355C245.367 150.648 246.248 150.784 246.609 150.626ZM264.281 156.911C263.321 156.64 262.306 157.103 261.956 158.062C259.992 163.75 257.95 168.128 256.02 171.175C250.366 179.718 249.182 175.192 248.99 172.473C248.866 169.685 248.82 166.898 248.843 164.1C248.809 162.633 248.933 161.233 249.125 159.834C249.396 158.288 250.13 154.237 248.2 153.458C247.094 153.04 245.39 152.262 243.302 154.282C241.632 155.783 241.181 163.355 241.169 166.3C241.181 167.101 241.824 174.369 241.982 174.651C243.122 181.399 250.378 180.451 250.378 180.451C250.75 180.451 251.044 180.44 251.258 180.361C253.684 179.955 255.919 177.856 257.848 175.034C257.927 175.034 257.995 174.955 257.995 174.876C258.063 174.809 258.142 174.73 258.209 174.583C262.001 169.008 264.732 161.312 265.499 159.168C265.77 158.209 265.24 157.193 264.281 156.911Z" fill="white"/>
<path d="M293.505 156.245C292.478 156.257 291.677 157.013 291.621 157.961C291.418 166.639 289.172 172.631 287.265 172.586C285.346 172.552 283.97 169.494 283.642 167.587C283.236 165.239 283.112 162.305 282.92 160.331C282.728 157.758 282.536 155.196 282.345 152.623C282.254 151.743 281.95 151.009 281.352 150.287C279.997 148.482 277.729 149.102 276.341 149.937C273.441 151.686 271.173 156.133 270.383 157.171C270.304 156.956 270.394 149.678 269.266 148.154C268.735 147.285 267.686 146.349 265.564 146.981C264.323 147.364 262.878 148.346 262.551 150.558C262.348 151.957 262.303 153.278 262.111 154.677C262.111 154.677 261.22 166.232 261.75 175.475C261.964 179.074 264.12 180.869 267.415 180C268.51 179.684 269.153 178.646 269.728 177.833C270.372 176.863 274.987 155.918 278.237 156.889C278.97 157.092 279.106 164.653 279.512 166.774C279.93 169.415 280.934 172.258 282.593 174.211C284.161 176.174 286.227 176.129 287.253 176.118C287.547 176.107 287.761 176.107 288.055 176.095C294.352 175.035 295.13 160.985 295.22 158.051C295.209 157.092 294.464 156.302 293.505 156.245Z" fill="white"/>
<path d="M328.613 156.263C327.936 155.474 326.762 155.417 325.961 156.094L318.66 162.177C317.814 156.241 317.001 151.704 316.99 151.625C316.606 150.316 316.211 148.996 315.827 147.687C315.286 146.22 315.32 144.539 314.27 143.23C313.977 142.869 313.74 142.507 313.446 142.146C312.544 141.21 311.641 140.047 310.027 139.923C309.655 139.934 309.226 140.092 308.786 140.171C308.492 140.25 308.052 140.408 307.827 140.262C307.827 140.262 298.551 134.992 295.188 144.166C294.556 145.498 294.059 146.829 293.574 148.229C293.089 149.707 292.671 151.185 292.333 152.731C291.859 154.65 291.452 156.647 291.114 158.633C291.114 158.633 287.819 171.475 299.363 171.633C299.51 171.633 299.656 171.633 299.803 171.633C299.803 171.633 299.803 171.633 299.871 171.622C305.163 171.532 308.03 167.954 308.639 164.637L309.248 169.839C309.248 169.839 304.633 174.849 300.83 180.131C297.332 185.412 293.913 191.641 293.123 196.358C293.055 196.945 293.066 197.464 292.998 197.972C293.01 198.265 293.01 198.491 292.942 198.717C292.953 199.45 292.976 200.184 293.055 200.917C293.235 202.745 293.123 204.585 294.183 206.334C295.47 208.365 296.824 210.024 299.329 210.712C300.807 211.13 302.274 211.028 303.741 210.927C305.209 210.757 306.597 210.509 307.917 210.046C323.275 206.165 320.781 181.97 320.781 181.97C320.623 177.49 320.003 171.701 319.247 166.431L328.432 158.769C329.234 158.092 329.29 156.986 328.613 156.263ZM306.54 150.35C306.281 151.896 305.863 153.442 305.378 154.921C305.31 155.225 305.096 155.733 304.893 156.399C303.978 158.848 302.918 161.285 301.71 163.655C301.214 164.479 300.785 164.93 300.413 164.783C299.814 164.58 299.656 163.621 299.781 162.369C299.984 161.409 300.187 160.529 300.322 159.57C300.661 158.171 300.92 156.692 301.27 155.293C301.541 154.108 301.812 152.934 302.083 151.75C302.229 151.309 302.365 150.869 302.5 150.418C302.568 150.057 302.715 149.684 302.85 149.391C302.85 149.391 304.136 143.41 306.089 145.588C307.07 147.033 306.811 148.804 306.54 150.35ZM303.11 208.444C302.15 208.388 301.406 207.812 300.796 206.717C299.656 204.02 299.442 200.872 299.69 197.78C299.679 197.419 299.747 196.9 299.803 196.381C299.939 195.354 300.142 194.395 300.266 193.435C302.308 184.656 309.282 176.226 309.282 176.226C309.294 176.813 309.305 177.411 309.316 177.919C309.327 178.652 309.339 179.318 309.35 180.052C309.44 180.413 309.44 180.785 309.452 181.225C309.689 186.507 310.084 207.88 303.11 208.444Z" fill="white"/>
<path d="M217.489 123.578C215.379 123.578 213.878 123.059 212.975 121.999C212.072 120.915 211.892 119.2 212.434 116.853C213.483 112.339 216.191 110.082 220.559 110.082C221.608 110.082 222.556 110.217 223.402 110.488C224.271 110.736 224.892 111.018 225.253 111.346L224.305 115.499H220.288L220.559 114.325C220.649 113.907 220.615 113.591 220.468 113.377C220.344 113.174 220.085 113.061 219.701 113.061C219.34 113.061 219.035 113.174 218.798 113.377C218.55 113.591 218.392 113.907 218.302 114.325L217.128 119.38C217.004 119.809 217.015 120.125 217.173 120.328C217.32 120.509 217.591 120.599 217.986 120.599C218.347 120.599 218.64 120.509 218.888 120.328C219.125 120.125 219.295 119.809 219.385 119.38L219.701 118.026H223.718L222.725 122.36C222.206 122.664 221.473 122.946 220.513 123.217C219.543 123.454 218.539 123.578 217.489 123.578Z" fill="#B71622"/>
<path d="M230.149 123.578C228.129 123.578 226.684 123.059 225.815 121.999C224.947 120.915 224.777 119.2 225.319 116.853C225.861 114.483 226.809 112.768 228.163 111.707C229.539 110.624 231.243 110.082 233.263 110.082C235.306 110.082 236.762 110.624 237.642 111.707C238.511 112.768 238.68 114.483 238.138 116.853C237.563 119.2 236.604 120.915 235.249 121.999C233.895 123.059 232.191 123.578 230.149 123.578ZM230.871 120.599C231.232 120.599 231.526 120.509 231.774 120.328C232.011 120.125 232.18 119.809 232.27 119.38L233.444 114.325C233.534 113.907 233.5 113.591 233.354 113.377C233.23 113.174 232.97 113.061 232.586 113.061C232.225 113.061 231.921 113.174 231.684 113.377C231.435 113.591 231.277 113.907 231.187 114.325L230.013 119.38C229.889 119.809 229.901 120.125 230.059 120.328C230.205 120.509 230.476 120.599 230.871 120.599Z" fill="#B71622"/>
<path d="M238.61 120.599H239.468L241.183 113.061H240.371L241.003 110.308H248.676C250.121 110.308 251.137 110.612 251.746 111.21C252.378 111.82 252.536 112.779 252.242 114.099C252.062 114.855 251.757 115.499 251.34 116.04C250.911 116.582 250.403 116.966 249.805 117.169L249.76 117.349C250.809 117.507 251.204 118.162 250.933 119.335L250.617 120.599H251.43L250.753 123.353H245.472L246.374 119.426C246.465 118.974 246.465 118.647 246.374 118.433C246.307 118.229 246.149 118.071 245.878 117.981C245.63 117.891 245.268 117.846 244.794 117.846L244.163 120.599H245.246L244.614 123.353H237.979L238.61 120.599ZM246.149 115.815C246.476 115.815 246.735 115.747 246.916 115.589C247.119 115.408 247.277 115.126 247.367 114.731L247.503 114.144C247.593 113.783 247.571 113.512 247.458 113.332C247.334 113.151 247.108 113.061 246.781 113.061H245.878L245.246 115.815H246.149Z" fill="#B71622"/>
<path d="M252.803 120.599H253.661L255.376 113.061H254.564L255.196 110.308H262.553C263.998 110.308 265.013 110.624 265.623 111.255C266.221 111.887 266.368 112.903 266.074 114.28C265.736 115.668 265.126 116.672 264.223 117.304C263.321 117.913 262.147 118.207 260.703 118.207H258.897L258.355 120.599H259.935L259.303 123.353H252.171L252.803 120.599ZM260.026 115.815C260.657 115.815 261.064 115.453 261.244 114.731L261.38 114.144C261.47 113.783 261.447 113.512 261.335 113.332C261.21 113.151 260.985 113.061 260.657 113.061H260.071L259.439 115.815H260.026Z" fill="#B71622"/>
</g>
<defs>
<clipPath id="clip0_117_50">
<rect width="359" height="211" fill="white"/>
</clipPath>
</defs>
</svg>
