<svg width="58" height="59" viewBox="0 0 58 59" fill="none" xmlns="http://www.w3.org/2000/svg">
<g clip-path="url(#clip0_117_405)">
<path d="M33.0146 0.875977C32.3889 0.875977 31.8818 1.38309 31.8818 2.00879C31.8818 2.63449 32.3889 3.1416 33.0146 3.1416C45.5424 3.1416 55.7341 13.3338 55.7341 25.8611C55.7341 26.4868 56.2417 26.9939 56.867 26.9939C57.4927 26.9939 57.9998 26.4868 57.9998 25.8611C57.9998 12.0846 46.7916 0.875977 33.0146 0.875977Z" fill="white"/>
<path d="M50.0524 26.9942C50.6781 26.9942 51.1852 26.4867 51.1852 25.8614C51.1852 15.8418 43.0338 7.69043 33.0146 7.69043C32.3889 7.69043 31.8818 8.19798 31.8818 8.82324C31.8818 9.44894 32.3889 9.95605 33.0146 9.95605C41.7846 9.95605 48.9196 17.091 48.9196 25.8614C48.9196 26.4867 49.4267 26.9942 50.0524 26.9942Z" fill="white"/>
<path d="M42.1037 25.8615C42.1037 26.4868 42.6108 26.9943 43.2365 26.9943C43.8622 26.9943 44.3693 26.4868 44.3693 25.8615C44.3693 19.6005 39.2756 14.5068 33.0146 14.5068C32.3889 14.5068 31.8818 15.0139 31.8818 15.6392C31.8818 16.2649 32.3889 16.772 33.0146 16.772C38.0265 16.772 42.1037 20.8492 42.1037 25.8615Z" fill="white"/>
<path d="M31.8818 22.4541C31.8818 23.0794 32.3889 23.5865 33.0146 23.5865C34.2687 23.5865 35.2891 24.6069 35.2891 25.8614C35.2891 26.4866 35.7962 26.9942 36.4219 26.9942C37.0472 26.9942 37.5547 26.4866 37.5547 25.8614C37.5547 23.3577 35.5179 21.3213 33.0146 21.3213C32.3889 21.3213 31.8818 21.8284 31.8818 22.4541Z" fill="white"/>
<path d="M21.2329 37.6562C21.2329 38.2819 20.7258 38.7891 20.1001 38.7891C19.4744 38.7891 18.9673 38.2819 18.9673 37.6562C18.9673 37.031 19.4744 36.5234 20.1001 36.5234C20.7258 36.5234 21.2329 37.031 21.2329 37.6562Z" fill="white"/>
<path d="M31.0427 57.5005C36.201 60.0285 42.4066 58.9767 46.4856 54.8977L48.8278 52.5555C50.0996 51.2851 50.1 49.227 48.8283 47.9557L39.7782 38.9065C38.5086 37.6351 36.4501 37.6334 35.1792 38.906L31.3338 42.7518C30.5807 43.505 29.4183 43.6585 28.5704 43.1173C27.188 42.2336 25.8433 41.2593 24.5737 40.2211C24.0892 39.8251 23.3759 39.8968 22.9798 40.3809C22.5838 40.8654 22.6555 41.5792 23.1396 41.9748C24.4772 43.0686 25.8937 44.0953 27.3509 45.0263C29.0877 46.1356 31.4365 45.8529 32.9357 44.3537L36.782 40.5074C37.1665 40.1225 37.7895 40.1216 38.1758 40.5079L47.2264 49.5575C47.6118 49.9434 47.6127 50.5673 47.2264 50.9528L44.8838 53.2958C41.4858 56.6938 36.3244 57.566 32.0396 55.4663C16.3427 47.7689 7.80236 35.5638 3.4021 26.6801C1.29711 22.4316 2.17105 17.2897 5.57701 13.8846L7.86829 11.5938C8.25239 11.2088 8.87588 11.2075 9.26174 11.5942L18.3132 20.6452C18.6964 21.028 18.7004 21.6519 18.3123 22.0391L14.4669 25.8849C12.9677 27.3841 12.685 29.7329 13.7943 31.4702C14.4479 32.4928 15.1524 33.5017 15.8887 34.4686C16.2675 34.9664 16.9781 35.0624 17.4759 34.6836C17.9738 34.3049 18.0702 33.5942 17.691 33.0959C16.9927 32.1786 16.3237 31.221 15.7033 30.2506C15.1621 29.4023 15.3156 28.2399 16.0688 27.4867L19.9137 23.6418C21.185 22.3723 21.1863 20.3133 19.9146 19.0429L10.864 9.99278C9.59494 8.72146 7.53597 8.71969 6.26554 9.99234L3.97514 12.2827C-0.118908 16.3755 -1.16499 22.5657 1.37189 27.6859C5.92836 36.8842 14.774 49.523 31.0427 57.5005Z" fill="white"/>
</g>
<defs>
<clipPath id="clip0_117_405">
<rect width="58" height="58" fill="white" transform="translate(0 0.875977)"/>
</clipPath>
</defs>
</svg>
