<svg width="32" height="31" viewBox="0 0 32 31" fill="none" xmlns="http://www.w3.org/2000/svg">
<path fill-rule="evenodd" clip-rule="evenodd" d="M11.6978 22.9366C11.4114 22.6553 11.2505 22.2738 11.2505 21.8761C11.2505 21.4784 11.4114 21.0969 11.6978 20.8156L16.7288 15.8761L11.6978 10.9366C11.4195 10.6537 11.2655 10.2748 11.269 9.8815C11.2725 9.4882 11.4331 9.11198 11.7164 8.83387C11.9997 8.55576 12.3829 8.39801 12.7834 8.39459C13.184 8.39117 13.5699 8.54236 13.8581 8.8156L19.9692 14.8156C20.2556 15.0969 20.4165 15.4784 20.4165 15.8761C20.4165 16.2738 20.2556 16.6553 19.9692 16.9366L13.8581 22.9366C13.5716 23.2178 13.1831 23.3758 12.7779 23.3758C12.3728 23.3758 11.9843 23.2178 11.6978 22.9366Z" fill="white"/>
</svg>
