<svg width="54" height="54" viewBox="0 0 54 54" fill="none" xmlns="http://www.w3.org/2000/svg">
<path d="M13.4486 8.12984C12.7189 7.40007 12.8138 6.18681 13.695 5.64948C17.4586 3.35444 21.8804 2.03223 26.6111 2.03223C40.3319 2.03223 51.4548 13.1552 51.4548 26.876C51.4548 40.5968 40.3319 51.7197 26.6111 51.7197C12.8903 51.7197 1.76733 40.5968 1.76733 26.876C1.76733 21.0048 3.80392 15.6093 7.20919 11.3575C7.79944 10.6205 8.89318 10.6012 9.5609 11.269C10.1882 11.8963 10.2063 12.9019 9.6587 13.6C6.79019 17.2577 5.07983 21.8671 5.07983 26.876C5.07983 38.7674 14.7197 48.4072 26.6111 48.4072C38.5025 48.4072 48.1423 38.7674 48.1423 26.876C48.1423 14.9846 38.5025 5.34473 26.6111 5.34473C22.5913 5.34473 18.8288 6.44631 15.6089 8.36407C14.9146 8.77764 14.0202 8.70137 13.4486 8.12984Z" fill="white"/>
<path d="M40.1886 16.5801C40.8438 17.2184 40.8577 18.2669 40.2194 18.9222L22.4739 37.141C22.1552 37.4682 21.7156 37.6492 21.2589 37.6413C20.8023 37.6335 20.3691 37.4374 20.0619 37.0994L12.9637 29.2914C12.3484 28.6146 12.3982 27.5671 13.0752 26.9517C13.752 26.3364 14.7995 26.3864 15.4148 27.0632L21.3291 33.5689L37.8465 16.6109C38.4848 15.9557 39.5333 15.9419 40.1886 16.5801Z" fill="white"/>
</svg>
