<svg width="61" height="59" viewBox="0 0 61 59" fill="none" xmlns="http://www.w3.org/2000/svg">
<g clip-path="url(#clip0_117_438)">
<path d="M54.9307 49.3135H49.5025L49.0694 48.0882C48.5632 46.6527 47.1494 45.6885 45.5557 45.6885C43.9619 45.6885 42.5482 46.6527 42.0419 48.0882L41.6088 49.3135H19.5025L19.0694 48.0864C18.5613 46.6527 17.1494 45.6885 15.5557 45.6885C13.9619 45.6885 12.55 46.6527 12.0419 48.0864L11.6088 49.3135H6.18066C4.11254 49.3135 2.43066 47.6877 2.43066 45.6885V34.8135C2.43066 32.8143 4.11254 31.1885 6.18066 31.1885H54.9307C56.9988 31.1885 58.6807 32.8143 58.6807 34.8135V45.6885C58.6807 47.6877 56.9988 49.3135 54.9307 49.3135ZM52.045 45.6885H54.9307V34.8189L6.18066 34.8135V45.6885H9.06629C10.3713 43.4772 12.8332 42.0635 15.5557 42.0635C18.2782 42.0635 20.74 43.4772 22.045 45.6885H39.0663C40.3713 43.4772 42.8332 42.0635 45.5557 42.0635C48.2782 42.0635 50.74 43.4772 52.045 45.6885Z" fill="white"/>
<path d="M53.5919 34.8135H30.5557V13.0635H44.9313C47.0294 13.0635 48.7525 14.7564 48.88 16.8842L53.5919 34.8135ZM34.3057 31.1885H48.7694L45.1375 17.1416C45.1375 16.848 44.9744 16.7012 44.9313 16.6885H34.3057V31.1885Z" fill="white"/>
<path d="M34.3057 34.8135H23.0557V5.81348C23.0557 3.81429 24.7375 2.18848 26.8057 2.18848H30.5557C32.6238 2.18848 34.3057 3.81429 34.3057 5.81348V34.8135ZM26.8057 31.1885H30.5557V5.81348H26.8057V31.1885Z" fill="white"/>
<path d="M15.5557 56.5635C11.4194 56.5635 8.05566 53.3119 8.05566 49.3135C8.05566 48.4453 8.21129 47.6134 8.52066 46.8467C9.52004 44.0119 12.3569 42.0635 15.5557 42.0635C18.7544 42.0635 21.5913 44.0119 22.6169 46.9155C22.9 47.6152 23.0557 48.4453 23.0557 49.3135C23.0557 53.3119 19.6919 56.5635 15.5557 56.5635ZM15.5557 45.6885C13.9619 45.6885 12.55 46.6527 12.0419 48.0864C11.8788 48.5015 11.8057 48.9002 11.8057 49.3135C11.8057 51.3127 13.4875 52.9385 15.5557 52.9385C17.6238 52.9385 19.3057 51.3127 19.3057 49.3135C19.3057 48.9002 19.2325 48.5015 19.0957 48.1553C18.5613 46.6527 17.1494 45.6885 15.5557 45.6885Z" fill="white"/>
<path d="M45.5557 56.5635C41.4194 56.5635 38.0557 53.3119 38.0557 49.3135C38.0557 48.4435 38.2113 47.6134 38.5188 46.8467C39.52 44.0119 42.3588 42.0635 45.5557 42.0635C48.7525 42.0635 51.5913 44.0119 52.6188 46.9137C52.9 47.6134 53.0557 48.4435 53.0557 49.3135C53.0557 53.3119 49.6919 56.5635 45.5557 56.5635ZM45.5557 45.6885C43.9619 45.6885 42.5482 46.6527 42.0419 48.0882C41.8788 48.4997 41.8057 48.8984 41.8057 49.3135C41.8057 51.3127 43.4875 52.9385 45.5557 52.9385C47.6238 52.9385 49.3057 51.3127 49.3057 49.3135C49.3057 48.8984 49.2325 48.4997 49.0957 48.1553C48.5632 46.6527 47.1494 45.6885 45.5557 45.6885Z" fill="white"/>
<path d="M11.8057 27.5635C10.7707 27.5635 9.93066 26.7533 9.93066 25.751V4.00098C9.93066 2.99866 10.7707 2.18848 11.8057 2.18848C12.8407 2.18848 13.6807 2.99866 13.6807 4.00098V25.751C13.6807 26.7533 12.8407 27.5635 11.8057 27.5635Z" fill="white"/>
<path d="M11.8055 27.5635C11.3255 27.5635 10.8455 27.3859 10.4798 27.0325L4.62797 21.3756C3.89484 20.667 3.89484 19.5215 4.62797 18.8128C5.36109 18.1041 6.54609 18.1041 7.27922 18.8128L13.1311 24.4696C13.8642 25.1783 13.8642 26.3238 13.1311 27.0325C12.7655 27.3859 12.2855 27.5635 11.8055 27.5635Z" fill="white"/>
<path d="M11.8056 27.5635C11.3256 27.5635 10.8456 27.3859 10.48 27.0325C9.74689 26.3238 9.74689 25.1783 10.48 24.4696L16.3319 18.8128C17.065 18.1041 18.25 18.1041 18.9831 18.8128C19.7163 19.5215 19.7163 20.667 18.9831 21.3756L13.1313 27.0325C12.7656 27.3859 12.2856 27.5635 11.8056 27.5635Z" fill="white"/>
</g>
<defs>
<clipPath id="clip0_117_438">
<rect width="60" height="58" fill="white" transform="translate(0.555664 0.375977)"/>
</clipPath>
</defs>
</svg>
