<svg width="74" height="74" viewBox="0 0 74 74" fill="none" xmlns="http://www.w3.org/2000/svg">
<g clip-path="url(#clip0_117_430)">
<path d="M68.2114 41.9222L62.2364 33.689C62.0915 33.4884 61.8933 33.3239 61.6538 33.2192C61.6508 33.2179 50.2919 29.4097 50.2919 29.4097L52.9188 28.0425C53.3903 27.7971 53.6861 27.3096 53.6861 26.7781V9.68241C53.6863 9.67228 53.6864 9.64933 53.6864 9.61711C53.6868 9.0957 53.3886 8.61934 52.919 8.39293L52.9188 8.39279L37.8244 0.537019C37.412 0.322296 36.9208 0.322296 36.5083 0.537019L21.4141 8.39279L21.4138 8.39293C20.9513 8.63888 20.6568 9.11566 20.6472 9.63949C20.6468 9.66002 20.6466 9.67471 20.6468 9.68241V26.7781C20.6468 27.3098 20.9426 27.7971 21.4141 28.0426L24.041 29.4098L12.7988 33.1731C12.7984 33.1733 12.6641 33.2259 12.658 33.2288C12.657 33.2292 12.6561 33.2296 12.6551 33.23C12.4263 33.335 12.2365 33.4952 12.0965 33.6893L6.1222 41.9216C5.95225 42.1557 5.84032 42.4319 5.8272 42.7209C5.80011 43.3181 6.13717 43.8474 6.65245 44.0859L11.8263 46.482C11.826 46.4924 11.8259 46.5028 11.8259 46.5132V61.521C11.8259 62.0881 12.1622 62.6014 12.6822 62.8278L36.5907 73.2377C36.5907 73.2377 36.5933 73.239 36.598 73.2413C36.9554 73.4214 37.3783 73.421 37.7355 73.2407L37.7356 73.2406L61.6508 62.8278C62.1709 62.6014 62.5071 62.0881 62.5071 61.521V46.5417L67.6929 44.0801C68.203 43.838 68.5343 43.31 68.5057 42.7163C68.4919 42.429 68.3804 42.155 68.2114 41.9222ZM50.8353 25.9129L38.5919 32.2849V18.378L50.8353 12.006V25.9129ZM37.1664 3.40854L49.173 9.65731L37.1664 15.9059L25.1599 9.65731L37.1664 3.40854ZM23.4976 12.006L35.7409 18.378V32.2849L23.4976 25.9129V12.006ZM36.5083 35.8981C36.5083 35.8981 36.5084 35.8981 36.5086 35.8982C36.9232 36.1003 37.4097 36.1003 37.8243 35.8982C37.8244 35.8981 37.8244 35.8981 37.8244 35.8981L46.7764 31.2392L57.153 34.7128L37.1664 43.608L17.1797 34.713L27.5564 31.2394L36.5083 35.8981ZM13.7266 36.2966L34.9024 45.7209L30.0648 51.7864L9.42274 42.227L13.7266 36.2966ZM14.6766 47.8019L29.8823 54.8437C30.0748 54.9328 30.2788 54.9758 30.4807 54.9758C30.9043 54.9758 31.3183 54.7868 31.5956 54.4391L35.7409 49.2416V69.7583L14.6766 60.5868V47.8019ZM55.1744 46.8666C54.4632 47.2043 54.1602 48.0545 54.4978 48.7656C54.8353 49.4768 55.6856 49.7795 56.3968 49.4422L59.6561 47.8951V60.5868L38.5918 69.7583V49.2416L42.7371 54.4391C43.0186 54.792 43.4335 54.9758 43.8524 54.9758C44.1639 54.9758 44.4777 54.874 44.7403 54.6647C45.3559 54.1738 45.4568 53.2769 44.9659 52.6614L39.4304 45.7209L60.6063 36.2966L64.9198 42.2405L55.1744 46.8666Z" fill="white"/>
<path d="M49.9798 52.3152C49.3912 52.3152 48.855 51.9401 48.6468 51.3912C48.4344 50.8308 48.6075 50.176 49.069 49.7933C49.5101 49.4277 50.1459 49.3631 50.6513 49.6323C51.1832 49.9155 51.485 50.5277 51.3853 51.1218C51.2714 51.8005 50.6699 52.3152 49.9798 52.3152Z" fill="white"/>
</g>
<defs>
<clipPath id="clip0_117_430">
<rect width="73" height="73" fill="white" transform="translate(0.666504 0.375977)"/>
</clipPath>
</defs>
</svg>
