<svg width="63" height="63" viewBox="0 0 63 63" fill="none" xmlns="http://www.w3.org/2000/svg">
<g clip-path="url(#clip0_117_469)">
<path d="M29.2758 42.4277C29.7492 41.9542 29.7492 41.1879 29.2758 40.7144C28.8018 40.2423 28.034 40.2423 27.5596 40.7144C27.0866 41.1879 27.0866 41.9542 27.5596 42.4277C28.034 42.8998 28.8018 42.8998 29.2758 42.4277Z" fill="white"/>
<path d="M23.5315 13.6925C23.5315 21.0352 29.517 27.0095 36.8741 27.0095C44.2312 27.0095 50.2167 21.0352 50.2167 13.6925C50.2167 6.34978 44.2312 0.375977 36.8741 0.375977C29.517 0.375977 23.5315 6.34978 23.5315 13.6925ZM47.791 13.6925C47.791 19.7004 42.8937 24.5881 36.8741 24.5881C30.8545 24.5881 25.9572 19.7004 25.9572 13.6925C25.9572 7.68512 30.8545 2.79738 36.8741 2.79738C42.8937 2.79738 47.791 7.68512 47.791 13.6925Z" fill="white"/>
<path d="M14.6987 62.0183C15.1688 62.4913 15.9343 62.4965 16.4106 62.0282L22.2913 56.246C23.2904 55.2489 23.5942 53.7726 23.1549 52.4893L24.4198 51.2717C25.1009 50.6152 25.9976 50.2533 26.9455 50.2533H43.0706C45.9314 50.2533 48.6353 49.1568 50.6851 47.1659C50.7695 47.084 50.0448 47.936 61.6859 34.0499C63.4125 32.0112 63.1542 28.9498 61.1096 27.2247C59.0778 25.5156 56.0341 25.7611 54.3027 27.7649L47.1452 35.1071C46.2414 33.9969 44.8631 33.3049 43.374 33.3049H29.848C27.9233 32.5012 25.881 32.0944 23.7739 32.0944C17.9329 32.0944 12.8328 34.7869 10.0957 39.835C8.94259 39.6169 7.72644 39.9651 6.85153 40.8383L1.08122 46.6143C0.610112 47.0859 0.609164 47.8489 1.07932 48.3219L14.6987 62.0183ZM23.7734 34.5154C25.6313 34.5154 27.4275 34.8886 29.1133 35.6246C29.2669 35.6918 29.4323 35.7263 29.5996 35.7263H43.374C44.6892 35.7263 45.8001 36.7967 45.8001 38.1472C45.8001 39.4826 44.7119 40.5686 43.374 40.5686H33.4775C32.8078 40.5686 32.2646 41.1107 32.2646 41.7791C32.2646 42.4479 32.8078 42.9896 33.4775 42.9896H43.374C46.0494 42.9896 48.2258 40.8174 48.2258 38.1472C48.2258 37.9344 48.2106 37.7234 48.1831 37.5143C55.107 30.4109 56.0834 29.4129 56.1251 29.3632C56.9896 28.3448 58.5242 28.2156 59.5451 29.0747C60.5669 29.937 60.6963 31.4677 59.8295 32.4918L48.95 45.4725C47.3613 46.9946 45.2755 47.8324 43.0706 47.8324H26.9455C25.3654 47.8324 23.8696 48.4355 22.735 49.5296L21.7041 50.5224L12.2015 41.0388C14.4224 36.8805 18.5898 34.5154 23.7734 34.5154ZM8.56817 42.5492C8.96819 42.1499 9.58242 42.078 10.0701 42.3789C10.2801 42.5066 9.67721 41.9588 20.5761 52.8213C21.061 53.3052 21.0349 54.0763 20.5828 54.5275L15.5693 59.4569L3.65096 47.471L8.56817 42.5492Z" fill="white"/>
<path d="M35.4185 6.42969V7.84828C34.0066 8.3478 32.9923 9.69354 32.9923 11.272C32.9923 13.2743 34.6246 14.9039 36.6313 14.9039C37.3 14.9039 37.8441 15.4469 37.8441 16.1144C37.8441 16.7818 37.3 17.3248 36.6313 17.3248C36.1133 17.3248 35.5535 16.9999 35.0564 16.409C34.6251 15.8972 33.8601 15.8315 33.3473 16.2615C32.8345 16.6919 32.7682 17.4554 33.1994 17.9672C33.8478 18.7368 34.6104 19.2732 35.4185 19.5438V20.9567C35.4185 21.6255 35.9616 22.1672 36.6313 22.1672C37.301 22.1672 37.8441 21.6255 37.8441 20.9567V19.5381C39.256 19.0381 40.2703 17.6924 40.2703 16.1144C40.2703 14.1116 38.638 12.4825 36.6313 12.4825C35.9626 12.4825 35.4185 11.9395 35.4185 11.272C35.4185 10.6046 35.9626 10.0611 36.6313 10.0611C37.0612 10.0611 37.5147 10.2801 37.9432 10.694C38.4247 11.159 39.1925 11.1462 39.6584 10.6661C40.1243 10.1855 40.1115 9.41919 39.6304 8.95421C39.0148 8.35962 38.3987 8.0233 37.8441 7.83977V6.42969C37.8441 5.76083 37.301 5.21875 36.6313 5.21875C35.9616 5.21875 35.4185 5.76083 35.4185 6.42969Z" fill="white"/>
</g>
<defs>
<clipPath id="clip0_117_469">
<rect width="62" height="62" fill="white" transform="translate(0.666748 0.375977)"/>
</clipPath>
</defs>
</svg>
