<svg width="66" height="66" viewBox="0 0 66 66" fill="none" xmlns="http://www.w3.org/2000/svg">
<g clip-path="url(#clip0_117_462)">
<path d="M38.028 36.0843C38.028 33.1051 35.5905 30.6676 32.6113 30.6676C29.6322 30.6676 27.1947 33.1051 27.1947 36.0843C27.1947 38.2781 28.7655 41.5822 31.0405 44.2906C29.3613 45.8072 27.1947 46.9176 24.4863 46.9176C22.3197 46.9176 20.2072 45.8614 18.3113 44.2364C22.0759 39.9031 24.4863 34.0531 24.4863 30.6676C24.4863 26.1989 20.8301 22.5426 16.3613 22.5426C11.8926 22.5426 8.23633 26.1989 8.23633 30.6676C8.23633 33.9989 10.5926 39.9572 14.4655 44.2906C12.8947 45.6447 11.1613 46.6197 9.37383 46.9176C8.64258 47.026 8.12799 47.7301 8.26341 48.4614C8.37174 49.1385 8.94049 49.5989 9.59049 49.5989C9.67174 49.5989 9.72591 49.5989 9.80716 49.5989C12.1905 49.2197 14.4113 47.9468 16.3613 46.2135C18.7176 48.2718 21.453 49.626 24.4863 49.626C33.4238 49.626 38.028 40.1468 38.028 36.0843ZM10.9447 30.6676C10.9447 27.6885 13.3822 25.251 16.3613 25.251C19.3405 25.251 21.778 27.6885 21.778 30.6676C21.778 33.6468 19.6113 38.6031 16.4155 42.3406C13.1655 38.6572 10.9447 33.6197 10.9447 30.6676ZM29.903 36.0843C29.903 34.5947 31.1217 33.376 32.6113 33.376C34.1009 33.376 35.3197 34.5947 35.3197 36.0843C35.3197 37.3031 34.5342 39.9031 32.8551 42.2322C31.0134 39.9301 29.903 37.3572 29.903 36.0843ZM63.1342 32.6447C60.5884 30.0989 56.1197 30.0989 53.5467 32.6447L32.6655 53.526C30.878 55.3135 29.8759 57.6968 29.8759 60.2156V64.5218C29.8759 65.2801 30.4717 65.876 31.2301 65.876H35.5363C38.0822 65.876 40.4384 64.901 42.2259 63.0864L63.1072 42.2051C64.3801 40.9322 65.0842 39.226 65.0842 37.4114C65.0842 35.5968 64.3801 33.8906 63.1072 32.6176L63.1342 32.6447ZM61.2113 40.3093L40.3301 61.1906C39.0572 62.4635 37.3509 63.1676 35.5363 63.1676H32.5842V60.2156C32.5842 58.401 33.2884 56.6947 34.5613 55.4218L55.4426 34.5406C56.9863 32.9968 59.6405 32.9968 61.1842 34.5406C61.9426 35.2989 62.3759 36.3281 62.3759 37.4114C62.3759 38.4947 61.9426 39.5239 61.1842 40.2822L61.2113 40.3093ZM23.1322 57.751H12.2988C7.07174 57.751 2.81966 53.4989 2.81966 48.2718V13.0635C2.81966 7.83639 7.07174 3.58431 12.2988 3.58431H29.903V13.0635C29.903 16.801 32.9363 19.8343 36.6738 19.8343H46.153V29.3135C46.153 30.0718 46.7488 30.6676 47.5072 30.6676C48.2655 30.6676 48.8613 30.0718 48.8613 29.3135V19.3739C48.8884 16.7197 47.9134 14.2551 46.1259 12.4406L37.3509 3.66556C35.5634 1.87806 33.1801 0.875977 30.6613 0.875977H12.2988C5.58216 0.875977 0.111328 6.34681 0.111328 13.0635V48.2718C0.111328 54.9885 5.58216 60.4593 12.2988 60.4593H23.1322C23.8905 60.4593 24.4863 59.8635 24.4863 59.1051C24.4863 58.3468 23.8905 57.751 23.1322 57.751ZM44.203 14.3364C44.9884 15.1218 45.5301 16.0697 45.8551 17.126H36.6738C34.4259 17.126 32.6113 15.3114 32.6113 13.0635V3.88223C33.6676 4.20723 34.6155 4.77598 35.428 5.56139L44.203 14.3364Z" fill="white"/>
<path d="M51.3613 37.6621L58.6828 44.9835" stroke="white" stroke-width="8"/>
</g>
<defs>
<clipPath id="clip0_117_462">
<rect width="65" height="65" fill="white" transform="translate(0.111328 0.875977)"/>
</clipPath>
</defs>
</svg>
