<svg width="77" height="77" viewBox="0 0 77 77" fill="none" xmlns="http://www.w3.org/2000/svg">
<path d="M66.6755 19.1162H19.5555C16.2115 19.1162 13.4755 21.8522 13.4755 25.1962V27.4762C13.4755 28.3122 14.1595 28.9962 14.9955 28.9962C15.8315 28.9962 16.5155 28.3122 16.5155 27.4762V25.1962C16.5155 24.8922 16.5915 24.5882 16.6675 24.2842L33.6915 38.8762L16.6675 53.4682C16.5915 53.1642 16.5155 52.8602 16.5155 52.5562V50.2762C16.5155 49.4402 15.8315 48.7562 14.9955 48.7562C14.1595 48.7562 13.4755 49.4402 13.4755 50.2762V52.5562C13.4755 55.9002 16.2115 58.6362 19.5555 58.6362H66.6755C70.0195 58.6362 72.7555 55.9002 72.7555 52.5562V25.1962C72.7555 21.8522 70.0195 19.1162 66.6755 19.1162ZM18.9475 22.2322C19.0995 22.1562 19.3275 22.1562 19.5555 22.1562H66.6755C66.9035 22.1562 67.1315 22.1562 67.2835 22.2322L44.1035 42.0682C43.4955 42.5242 42.7355 42.5242 42.1275 42.0682L18.9475 22.2322ZM66.6755 55.5962H19.5555C19.3275 55.5962 19.0995 55.5962 18.9475 55.5202L36.0475 40.8522L40.1515 44.4242C40.9875 45.1842 42.0515 45.5642 43.1155 45.5642C44.1795 45.5642 45.2435 45.1842 46.0795 44.4242L50.1835 40.8522L67.2835 55.5202C67.1315 55.5962 66.9035 55.5962 66.6755 55.5962ZM69.7155 52.5562C69.7155 52.8602 69.6395 53.1642 69.5635 53.4682L52.5395 38.8762L69.5635 24.2842C69.6395 24.5882 69.7155 24.8922 69.7155 25.1962V52.5562ZM8.91547 35.0762C8.91547 34.2402 9.59947 33.5562 10.4355 33.5562H19.5555C20.3915 33.5562 21.0755 34.2402 21.0755 35.0762C21.0755 35.9122 20.3915 36.5962 19.5555 36.5962H10.4355C9.59947 36.5962 8.91547 35.9122 8.91547 35.0762ZM19.5555 44.1962H5.87547C5.03947 44.1962 4.35547 43.5122 4.35547 42.6762C4.35547 41.8402 5.03947 41.1562 5.87547 41.1562H19.5555C20.3915 41.1562 21.0755 41.8402 21.0755 42.6762C21.0755 43.5122 20.3915 44.1962 19.5555 44.1962Z" fill="white"/>
</svg>
