<svg width="204" height="129" viewBox="0 0 204 129" fill="none" xmlns="http://www.w3.org/2000/svg">
<path d="M199.875 81.751H196.5V58.126C196.5 57.4988 196.326 56.8839 195.996 56.3504C195.666 55.8168 195.195 55.3857 194.634 55.1054L182.146 48.8616L166.125 16.8295V4.12598C166.125 3.23087 165.769 2.37243 165.136 1.73949C164.504 1.10656 163.645 0.750977 162.75 0.750977H149.25C148.355 0.750977 147.496 1.10656 146.864 1.73949C146.231 2.37243 145.875 3.23087 145.875 4.12598V12.8537L134.761 1.73985C134.128 1.10687 133.27 0.751168 132.375 0.750977H4.125C3.22989 0.750977 2.37145 1.10656 1.73851 1.73949C1.10558 2.37243 0.75 3.23087 0.75 4.12598V105.376C0.75 106.271 1.10558 107.13 1.73851 107.762C2.37145 108.395 3.22989 108.751 4.125 108.751H28.02C28.827 114.37 31.6326 119.51 35.9224 123.227C40.2122 126.945 45.6984 128.991 51.375 128.991C57.0516 128.991 62.5378 126.945 66.8276 123.227C71.1174 119.51 73.923 114.37 74.73 108.751H142.77C143.577 114.37 146.383 119.51 150.672 123.227C154.962 126.945 160.448 128.991 166.125 128.991C171.802 128.991 177.288 126.945 181.578 123.227C185.867 119.51 188.673 114.37 189.48 108.751H199.875C200.77 108.751 201.629 108.395 202.261 107.762C202.894 107.13 203.25 106.271 203.25 105.376V85.126C203.25 84.2309 202.894 83.3724 202.261 82.7395C201.629 82.1066 200.77 81.751 199.875 81.751ZM189.75 60.2117V68.251H179.625C178.73 68.251 177.871 68.6066 177.239 69.2395C176.606 69.8724 176.25 70.7309 176.25 71.626V81.751H166.125V54.751H178.829L189.75 60.2117ZM189.75 75.001V81.751H183V75.001H189.75ZM167.414 34.501L174.164 48.001H135.75V34.501H167.414ZM135.75 61.501V54.751H159.375V81.751H135.75V68.251H149.25V61.501H135.75ZM152.625 7.50098H159.375V14.251H152.625V7.50098ZM7.5 7.50098H130.978L137.728 14.251H7.5V7.50098ZM14.25 102.001H7.5V88.501H14.25V102.001ZM7.5 81.751V21.001H160.664L164.039 27.751H132.375C131.48 27.751 130.621 28.1066 129.989 28.7395C129.356 29.3724 129 30.2309 129 31.126V81.751H7.5ZM28.02 102.001H21V88.501H34.8746C31.1655 92.1234 28.7559 96.8689 28.02 102.001ZM51.375 122.251C48.0374 122.251 44.7748 121.261 41.9998 119.407C39.2247 117.553 37.0618 114.917 35.7845 111.834C34.5073 108.75 34.1731 105.357 34.8242 102.084C35.4754 98.8104 37.0826 95.8036 39.4426 93.4436C41.8026 91.0835 44.8094 89.4764 48.0828 88.8252C51.3563 88.1741 54.7493 88.5083 57.8328 89.7855C60.9163 91.0628 63.5518 93.2257 65.4061 96.0007C67.2603 98.7758 68.25 102.038 68.25 105.376C68.2446 109.85 66.465 114.139 63.3015 117.302C60.138 120.466 55.8489 122.246 51.375 122.251ZM142.77 102.001H74.73C73.9941 96.8689 71.5845 92.1234 67.8754 88.501H149.625C145.915 92.1234 143.506 96.8689 142.77 102.001ZM166.125 122.251C162.787 122.251 159.525 121.261 156.75 119.407C153.975 117.553 151.812 114.917 150.535 111.834C149.257 108.75 148.923 105.357 149.574 102.084C150.225 98.8104 151.833 95.8036 154.193 93.4436C156.553 91.0835 159.559 89.4764 162.833 88.8252C166.106 88.1741 169.499 88.5083 172.583 89.7855C175.666 91.0628 178.302 93.2257 180.156 96.0007C182.01 98.7758 183 102.038 183 105.376C182.995 109.85 181.215 114.139 178.051 117.302C174.888 120.466 170.599 122.246 166.125 122.251ZM196.5 102.001H189.48C188.744 96.8689 186.335 92.1234 182.625 88.501H196.5V102.001Z" fill="white"/>
<path d="M51.375 95.251C49.3725 95.251 47.4149 95.8448 45.7499 96.9574C44.0848 98.0699 42.7871 99.6512 42.0207 101.501C41.2544 103.351 41.0539 105.387 41.4446 107.351C41.8352 109.315 42.7995 111.119 44.2155 112.535C45.6316 113.951 47.4357 114.916 49.3997 115.306C51.3638 115.697 53.3996 115.497 55.2497 114.73C57.0998 113.964 58.6811 112.666 59.7936 111.001C60.9062 109.336 61.5 107.379 61.5 105.376C61.5 102.691 60.4333 100.115 58.5345 98.2165C56.6357 96.3177 54.0603 95.251 51.375 95.251ZM51.375 108.751C50.7075 108.751 50.055 108.553 49.5 108.182C48.9449 107.811 48.5124 107.284 48.2569 106.668C48.0015 106.051 47.9346 105.372 48.0649 104.718C48.1951 104.063 48.5165 103.461 48.9885 102.989C49.4605 102.517 50.0619 102.196 50.7166 102.066C51.3713 101.936 52.0499 102.002 52.6666 102.258C53.2833 102.513 53.8104 102.946 54.1812 103.501C54.5521 104.056 54.75 104.708 54.75 105.376C54.75 106.271 54.3944 107.13 53.7615 107.762C53.1286 108.395 52.2701 108.751 51.375 108.751Z" fill="white"/>
<path d="M166.125 95.251C164.122 95.251 162.165 95.8448 160.5 96.9574C158.835 98.0699 157.537 99.6512 156.771 101.501C156.004 103.351 155.804 105.387 156.195 107.351C156.585 109.315 157.55 111.119 158.966 112.535C160.382 113.951 162.186 114.916 164.15 115.306C166.114 115.697 168.15 115.497 170 114.73C171.85 113.964 173.431 112.666 174.544 111.001C175.656 109.336 176.25 107.379 176.25 105.376C176.25 102.691 175.183 100.115 173.284 98.2165C171.386 96.3177 168.81 95.251 166.125 95.251ZM166.125 108.751C165.457 108.751 164.805 108.553 164.25 108.182C163.695 107.811 163.262 107.284 163.007 106.668C162.751 106.051 162.685 105.372 162.815 104.718C162.945 104.063 163.267 103.461 163.739 102.989C164.211 102.517 164.812 102.196 165.467 102.066C166.121 101.936 166.8 102.002 167.417 102.258C168.033 102.513 168.56 102.946 168.931 103.501C169.302 104.056 169.5 104.708 169.5 105.376C169.5 106.271 169.144 107.13 168.511 107.762C167.879 108.395 167.02 108.751 166.125 108.751Z" fill="white"/>
<path d="M21 27.751H14.25V41.251H21V27.751Z" fill="white"/>
<path d="M21 61.501H14.25V75.001H21V61.501Z" fill="white"/>
<path d="M81.75 51.376C78.1696 51.376 74.7358 49.9537 72.2041 47.4219C69.6723 44.8902 68.25 41.4564 68.25 37.876C68.25 36.9809 67.8944 36.1224 67.2615 35.4895C66.6286 34.8566 65.7701 34.501 64.875 34.501C63.9799 34.501 63.1214 34.8566 62.4885 35.4895C61.8556 36.1224 61.5 36.9809 61.5 37.876C61.5 41.4564 60.0777 44.8902 57.5459 47.4219C55.0142 49.9537 51.5804 51.376 48 51.376C47.1049 51.376 46.2465 51.7316 45.6135 52.3645C44.9806 52.9974 44.625 53.8559 44.625 54.751C44.625 55.6461 44.9806 56.5045 45.6135 57.1375C46.2465 57.7704 47.1049 58.126 48 58.126C51.5804 58.126 55.0142 59.5483 57.5459 62.08C60.0777 64.6118 61.5 68.0456 61.5 71.626C61.5 72.5211 61.8556 73.3795 62.4885 74.0125C63.1214 74.6454 63.9799 75.001 64.875 75.001C65.7701 75.001 66.6286 74.6454 67.2615 74.0125C67.8944 73.3795 68.25 72.5211 68.25 71.626C68.25 68.0456 69.6723 64.6118 72.2041 62.08C74.7358 59.5483 78.1696 58.126 81.75 58.126C82.6451 58.126 83.5036 57.7704 84.1365 57.1375C84.7694 56.5045 85.125 55.6461 85.125 54.751C85.125 53.8559 84.7694 52.9974 84.1365 52.3645C83.5036 51.7316 82.6451 51.376 81.75 51.376ZM64.875 60.4446C63.3739 58.1876 61.4384 56.2521 59.1814 54.751C61.4384 53.2499 63.3739 51.3144 64.875 49.0574C66.3761 51.3144 68.3116 53.2499 70.5686 54.751C68.3116 56.2521 66.3761 58.1876 64.875 60.4446Z" fill="white"/>
<path d="M105.375 37.876C103.585 37.876 101.868 37.1648 100.602 35.8989C99.3362 34.6331 98.625 32.9162 98.625 31.126C98.625 30.2309 98.2694 29.3724 97.6365 28.7395C97.0036 28.1066 96.1451 27.751 95.25 27.751C94.3549 27.751 93.4964 28.1066 92.8635 28.7395C92.2306 29.3724 91.875 30.2309 91.875 31.126C91.875 32.9162 91.1638 34.6331 89.898 35.8989C88.6321 37.1648 86.9152 37.876 85.125 37.876C84.2299 37.876 83.3714 38.2316 82.7385 38.8645C82.1056 39.4974 81.75 40.3559 81.75 41.251C81.75 42.1461 82.1056 43.0045 82.7385 43.6375C83.3714 44.2704 84.2299 44.626 85.125 44.626C86.9152 44.626 88.6321 45.3371 89.898 46.603C91.1638 47.8689 91.875 49.5858 91.875 51.376C91.875 52.2711 92.2306 53.1295 92.8635 53.7625C93.4964 54.3954 94.3549 54.751 95.25 54.751C96.1451 54.751 97.0036 54.3954 97.6365 53.7625C98.2694 53.1295 98.625 52.2711 98.625 51.376C98.625 49.5858 99.3362 47.8689 100.602 46.603C101.868 45.3371 103.585 44.626 105.375 44.626C106.27 44.626 107.129 44.2704 107.761 43.6375C108.394 43.0045 108.75 42.1461 108.75 41.251C108.75 40.3559 108.394 39.4974 107.761 38.8645C107.129 38.2316 106.27 37.876 105.375 37.876ZM95.25 42.4559C94.8758 42.0277 94.4733 41.6251 94.0451 41.251C94.4733 40.8768 94.8758 40.4743 95.25 40.0461C95.6242 40.4743 96.0267 40.8768 96.4549 41.251C96.0267 41.6251 95.6242 42.0277 95.25 42.4559Z" fill="white"/>
</svg>
