<svg width="164" height="165" viewBox="0 0 164 165" fill="none" xmlns="http://www.w3.org/2000/svg">
<path d="M51.9334 164.876H112.067C122.629 164.864 131.188 156.305 131.2 145.743V20.0093C131.188 9.44726 122.629 0.888027 112.067 0.875977H51.9334C41.3713 0.888027 32.8121 9.44726 32.8 20.0093V145.743C32.8121 156.305 41.3713 164.864 51.9334 164.876ZM105.54 6.34264L103.142 13.5395C102.398 15.7708 100.31 17.2758 97.9573 17.276H66.0429C63.6869 17.2789 61.594 15.7721 60.8495 13.5368L58.4606 6.34264H105.54ZM38.2667 20.0093C38.2735 16.2526 39.8215 12.6633 42.549 10.08C45.2765 7.49667 48.9445 6.14567 52.696 6.34264L55.6726 15.267C57.1556 19.7344 61.3357 22.7478 66.0429 22.7426H97.9573C102.664 22.7469 106.844 19.7339 108.328 15.267L111.304 6.34264C115.056 6.14567 118.724 7.49667 121.451 10.08C124.179 12.6633 125.727 16.2526 125.733 20.0093V145.743C125.724 153.287 119.611 159.4 112.067 159.409H51.9334C44.3892 159.4 38.2758 153.287 38.2667 145.743V20.0093Z" fill="white" stroke="white"/>
<path d="M103.867 148.476H60.1332C58.6237 148.476 57.3999 149.7 57.3999 151.209C57.3999 152.719 58.6237 153.943 60.1332 153.943H103.867C105.376 153.943 106.6 152.719 106.6 151.209C106.6 149.7 105.376 148.476 103.867 148.476Z" fill="white" stroke="white"/>
<path d="M147.928 47.1461C146.808 48.1577 146.72 49.8853 147.731 51.0055C162.141 66.9764 162.147 98.7678 147.731 114.747C147.05 115.467 146.812 116.5 147.11 117.446C147.407 118.392 148.194 119.102 149.165 119.302C150.137 119.502 151.14 119.161 151.787 118.41C168.062 100.37 168.086 65.4048 151.787 47.3429C150.776 46.2232 149.048 46.1351 147.928 47.1461Z" fill="white" stroke="white"/>
<path d="M135.743 107.648C136.865 108.657 138.593 108.565 139.602 107.443C150.262 95.5967 150.262 70.1521 139.602 58.3086C138.593 57.1854 136.864 57.093 135.741 58.1022C134.618 59.1114 134.526 60.8399 135.535 61.963C144.336 71.7484 144.325 94.0168 135.535 103.783C135.049 104.323 134.798 105.033 134.837 105.759C134.876 106.484 135.202 107.163 135.743 107.648Z" fill="white" stroke="white"/>
<path d="M12.2125 47.3428C-4.06178 65.3828 -4.08638 100.348 12.2125 118.41C12.8598 119.161 13.8632 119.502 14.8345 119.302C15.8057 119.102 16.5924 118.392 16.8902 117.446C17.188 116.5 16.9502 115.467 16.2688 114.747C1.85862 98.776 1.85315 66.9846 16.2688 51.0055C17.2381 49.8807 17.1321 48.1876 16.03 47.1925C14.9279 46.1973 13.2329 46.2641 12.2125 47.3428Z" fill="white" stroke="white"/>
<path d="M28.2571 58.1038C27.1346 57.0949 25.4069 57.1867 24.3976 58.3088C13.7376 70.1551 13.7376 95.5997 24.3976 107.443C25.0504 108.17 26.0412 108.493 26.9968 108.291C27.9524 108.089 28.7276 107.392 29.0304 106.464C29.3332 105.535 29.1176 104.515 28.4648 103.789C19.6635 94.0034 19.6744 71.735 28.4648 61.9688C28.9507 61.4291 29.2018 60.7183 29.1628 59.9932C29.1239 59.2681 28.798 58.5883 28.2571 58.1038Z" fill="white" stroke="white"/>
<path d="M51.9332 123.876H112.067C115.086 123.876 117.533 121.429 117.533 118.409V116.245C117.534 110.857 114.591 105.899 109.861 103.319L96.5303 96.0453C95.437 95.4603 95.6666 93.8231 95.6666 89.0315C97.6701 85.8314 99.1915 82.3538 100.182 78.7104C102.206 77.5808 103.574 75.557 103.867 73.2575V67.296C103.678 65.4384 102.677 63.7592 101.133 62.7095V55.4553C101.429 51.6032 100.187 47.7907 97.6783 44.8527C94.3655 41.0807 89.1066 39.1619 81.9999 39.1427C74.8932 39.1236 69.6398 41.0752 66.3352 44.8499C63.8466 47.7991 62.6157 51.6075 62.9076 55.4553V62.6822C61.3233 63.7125 60.3003 65.4136 60.1332 67.296V73.2711C60.4274 75.5686 61.792 77.5912 63.8123 78.7241C64.8017 82.3644 66.3253 85.838 68.3332 89.0315C68.3332 93.9515 68.5437 95.4603 67.4695 96.0453L54.1418 103.316C49.4092 105.894 46.4647 110.853 46.4666 116.242V118.409C46.4666 121.429 48.9141 123.876 51.9332 123.876ZM51.9332 116.242C51.9317 112.853 53.7839 109.735 56.7603 108.116L70.088 100.845C72.6211 99.3815 74.0706 96.5774 73.7999 93.6645C73.7999 86.9651 74.035 87.7988 72.9389 86.085C71.0569 83.0737 69.6724 79.7788 68.8389 76.327C68.3688 74.5612 66.5402 74.3808 65.6026 73.0634V67.6268C66.6714 66.4104 68.366 65.9157 68.366 63.9723V55.2475C68.1416 52.7982 68.8886 50.3588 70.4461 48.4552C72.6683 45.9186 76.5578 44.6285 81.9972 44.6149C87.4365 44.6012 91.3424 45.9187 93.5728 48.4607C95.1179 50.3587 95.8682 52.7811 95.6666 55.2202V63.9669C95.6666 65.8939 97.3804 66.4268 98.3999 67.6158V73.0634C97.7752 73.7423 97.0508 74.322 96.2515 74.7826C94.2698 76.1493 95.4616 79.1915 91.0582 86.0932C89.9512 87.8316 90.1999 87.069 90.1999 93.6673C89.9235 96.5855 91.3793 99.3958 93.9227 100.853L107.242 108.118C110.216 109.741 112.066 112.857 112.067 116.245V118.409H51.9332V116.242Z" fill="white" stroke="white"/>
</svg>
