<svg width="162" height="163" viewBox="0 0 162 163" fill="none" xmlns="http://www.w3.org/2000/svg">
<path d="M123.684 123.008L123.683 123.01L123.682 123.012L123.666 123.033L123.584 123.141L123.389 123.399L123.274 123.551V147.572C123.274 155.343 116.946 161.664 109.166 161.664H14.755C6.97519 161.664 0.64699 155.343 0.646973 147.572V15.1967C0.646973 7.41638 6.97459 1.08789 14.755 1.08789H109.166C116.947 1.08789 123.274 7.4164 123.274 15.1967V83.9303C133.322 70.5111 133.39 70.4243 134.222 69.3568C134.649 68.8092 135.277 68.0035 137.557 65.007C141.393 59.9241 148.854 58.5996 154.264 62.6824L153.963 63.0816L154.264 62.6825C159.466 66.6101 160.497 73.8913 156.828 79.0893L158.234 80.1506L158.235 80.1508C161.691 82.7622 162.38 87.697 159.77 91.1529L137.956 120.055C137.956 120.055 137.956 120.055 137.956 120.055C137.24 121.004 135.887 121.201 134.927 120.48L134.926 120.479C133.973 119.758 133.783 118.402 134.503 117.448C134.503 117.448 134.503 117.448 134.503 117.448L156.317 88.5457C157.488 86.9935 157.179 84.7767 155.627 83.6044L123.684 123.008ZM123.684 123.008L123.684 123.008L123.685 123.008M123.684 123.008L123.685 123.008M123.685 123.008L123.946 122.662L154.225 82.5462L155.627 83.6042L123.685 123.008ZM93.0822 139.445L93.0819 139.441L92.4955 128.87C92.3539 126.372 93.1077 123.895 94.6216 121.891L118.947 89.6717V15.1967C118.947 9.80365 114.559 5.41516 109.166 5.41516H14.755C9.3628 5.41516 4.97426 9.80366 4.97426 15.1967L4.97428 147.572C4.97428 152.955 9.36201 157.337 14.755 157.337H109.166C114.559 157.337 118.947 152.955 118.947 147.572V129.285L113.668 136.281L93.0822 139.445ZM93.0822 139.445C93.2184 141.575 95.2376 143.034 97.2342 142.556M93.0822 139.445L97.2342 142.556M97.2342 142.556C97.2355 142.556 97.2368 142.556 97.2382 142.555M97.2342 142.556L97.2382 142.555M97.2382 142.555L107.549 140.231C109.991 139.681 112.165 138.279 113.668 136.281L97.2382 142.555ZM135.227 120.08C135.966 120.635 137.007 120.483 137.557 119.754L135.227 120.08ZM157.933 80.5497L156.531 79.4921L156.589 79.4157C156.595 79.4085 156.603 79.3987 156.611 79.3866L157.933 80.5497ZM100.183 121.706L112.742 130.324L110.212 133.677L110.211 133.678C109.43 134.715 108.338 135.476 107.107 135.863C105.272 131.71 101.36 128.843 96.8053 128.345C96.7899 126.968 97.2348 125.611 98.0743 124.499C98.0743 124.499 98.0743 124.499 98.0744 124.499L100.183 121.706ZM141.012 67.628L141.013 67.627C143.56 64.2353 148.303 63.6637 151.596 66.1003C151.615 66.1141 151.631 66.1249 151.643 66.1325C151.651 66.1372 151.658 66.1416 151.664 66.1446C155.094 68.7438 155.572 73.5754 153.156 76.7788C153.155 76.7794 153.155 76.78 153.154 76.7807L147.777 83.7851L135.698 74.667L141.012 67.628ZM97.0431 132.736C99.4842 133.213 101.581 134.726 102.793 136.867L97.3408 138.097L97.0431 132.736ZM115.352 126.867L102.793 118.249L133.09 78.1209L145.23 87.2836L115.352 126.867Z" fill="white" stroke="white"/>
<path d="M37.5705 38.1558L37.5699 38.1557C36.3807 38.0354 35.5144 36.974 35.6346 35.7854L37.5705 38.1558ZM37.5705 38.1558C37.646 38.1634 37.7196 38.1664 37.7893 38.1664C38.8867 38.1664 39.8265 37.3353 39.9406 36.221L39.9406 36.2206M37.5705 38.1558L39.9406 36.2206M39.9406 36.2206C40.0018 35.6171 40.0727 35.0097 40.1562 34.3988L40.1563 34.3982M39.9406 36.2206L40.1563 34.3982M40.1563 34.3982C40.3168 33.2148 39.4878 32.1253 38.3041 31.9643C37.1104 31.7904 36.027 32.6415 35.8674 33.8169L35.8673 33.8179M40.1563 34.3982L35.8673 33.8179M35.8673 33.8179C35.7789 34.477 35.7003 35.133 35.6347 35.785L35.8673 33.8179Z" fill="white" stroke="white"/>
<path d="M36.3009 50.3937L36.3008 50.3931C35.7809 47.9507 35.4738 45.3697 35.3884 42.7205C35.3487 41.5265 36.2836 40.5281 37.4773 40.4875C37.5056 40.4863 37.532 40.4863 37.5489 40.4863L37.5518 40.4863C38.7145 40.4863 39.6738 41.4089 39.7119 42.5791L36.3009 50.3937ZM36.3009 50.3937C36.5186 51.4104 37.4166 52.1058 38.4161 52.1058C38.5646 52.1058 38.715 52.0911 38.8681 52.0582C40.0364 51.809 40.7819 50.6608 40.5348 49.4919L40.5346 49.4908M36.3009 50.3937L40.5346 49.4908M40.5346 49.4908C40.0669 47.3027 39.7906 44.9775 39.7119 42.5793L40.5346 49.4908Z" fill="white" stroke="white"/>
<path d="M95.4447 28.9215L95.4447 28.9217C97.3377 42.8404 95.2312 54.97 89.575 64.4469C83.9157 73.9289 74.729 80.7109 62.551 83.9713L95.4447 28.9215ZM95.4447 28.9215C95.0454 25.9932 92.3485 23.954 89.3609 24.4129L89.3582 24.4134M95.4447 28.9215L89.3582 24.4134M89.3582 24.4134C76.542 26.4542 69.29 20.9669 66.1145 17.5437L66.1127 17.5419M89.3582 24.4134L66.1127 17.5419M66.1127 17.5419C64.0146 15.3034 60.5474 15.2667 58.4218 17.4462L58.4205 17.4475M66.1127 17.5419L58.4205 17.4475M58.4205 17.4475C55.0648 20.915 47.4913 26.4682 34.5505 24.4134C31.6399 23.9479 28.8757 25.937 28.4657 28.9218L28.4656 28.9228M58.4205 17.4475L28.4656 28.9228M28.4656 28.9228C26.5815 42.8423 28.6946 54.972 34.3541 64.4486C40.0166 73.9303 49.2032 80.7117 61.3772 83.9713C61.5619 84.0212 61.7504 84.0454 61.9381 84.0454M28.4656 28.9228L61.9381 84.0454M61.9381 84.0454H61.9901M61.9381 84.0454H61.9901M61.9901 84.0454C62.1775 84.0454 62.3656 84.0213 62.5499 83.9716L61.9901 84.0454ZM33.8714 28.6873L33.8737 28.6876C48.7069 31.0398 57.5612 24.5559 61.5271 20.4608C61.9212 20.0558 62.5463 20.0649 62.9487 20.4938C66.7388 24.5782 75.2868 31.0354 90.0334 28.6879C90.5999 28.6027 91.0825 28.9663 91.1558 29.5049C92.8924 42.2655 91.0001 53.3024 85.9711 61.8925C80.9659 70.4419 72.8292 76.6105 61.9641 79.6456C51.1022 76.6113 42.9654 70.4429 37.9572 61.8935C32.9252 53.3034 31.0268 42.2664 32.7546 29.5062C32.8296 28.9546 33.3337 28.5995 33.8714 28.6873Z" fill="white" stroke="white"/>
<path d="M55.0267 59.7254L55.0284 59.7272C57.5681 62.3205 61.6612 62.3977 64.3043 60.0433C64.3044 60.0432 64.3044 60.0432 64.3045 60.0431L76.7507 48.9648L76.7508 48.9648C79.5263 46.494 79.7769 42.2447 77.3035 39.4663C74.8374 36.6957 70.575 36.4463 67.8049 38.9145L60.1633 45.7167L58.2369 43.7106L58.2369 43.7106L58.2335 43.7072C55.6298 41.0471 51.3678 41.0146 48.7205 43.6139C46.0504 46.2329 46.0431 50.4912 48.6217 53.1198C48.6221 53.1202 48.6225 53.1206 48.6228 53.1209L55.0267 59.7254ZM58.4838 50.2161L58.484 50.2164C59.2902 51.0553 60.6166 51.1083 61.4841 50.3342C61.4843 50.3341 61.4844 50.334 61.4845 50.3339L70.6827 42.147L70.683 42.1467C71.6691 41.2674 73.1918 41.3553 74.0707 42.3438L74.0709 42.344C74.9474 43.3283 74.8712 44.8458 73.8736 45.7317L73.8731 45.7321L61.4267 56.8114L61.4266 56.8115C60.4816 57.653 59.017 57.613 58.127 56.7059C58.1267 56.7056 58.1264 56.7052 58.1261 56.7049L51.7204 50.0986L51.7204 50.0986L51.7181 50.0963C50.7911 49.1526 50.7997 47.636 51.7502 46.7033C52.711 45.7625 54.2307 45.8052 55.129 46.7209L58.4838 50.2161Z" fill="white" stroke="white"/>
<path d="M42.7466 93.6006L42.7467 93.6005C43.6566 92.8268 43.7694 91.462 42.994 90.5508C42.2221 89.6399 40.8552 89.5284 39.9447 90.3026V90.3026L39.9446 90.3027L37.2207 92.6175C36.087 91.1375 34.3094 90.1714 32.298 90.1714H21.3154C17.8858 90.1714 15.0967 92.9614 15.0967 96.3909V107.374C15.0967 110.803 17.8858 113.592 21.3154 113.592H32.298C35.7276 113.592 38.5168 110.803 38.5168 107.374V97.1954L42.7466 93.6006ZM29.8857 104.531L29.8859 104.53L34.1895 100.873V107.374C34.1895 108.416 33.341 109.265 32.298 109.265H21.3154C20.2724 109.265 19.4239 108.416 19.4239 107.374L19.4239 96.391C19.4239 95.3477 20.2726 94.4987 21.3154 94.4987H32.298C32.9846 94.4987 33.5857 94.8698 33.916 95.4258L28.6035 99.9403L26.7736 98.1104C25.9285 97.2653 24.5591 97.2653 23.714 98.1104C22.8689 98.9556 22.8689 100.325 23.714 101.17L26.9552 104.411C27.7536 105.21 29.0283 105.259 29.8857 104.531Z" fill="white" stroke="white"/>
<path d="M51.6768 96.6245C50.481 96.6245 49.5132 97.5934 49.5132 98.7881C49.5132 99.9829 50.481 100.952 51.6768 100.952H95.1881C96.3839 100.952 97.3517 99.9829 97.3517 98.7881C97.3517 97.5934 96.3839 96.6245 95.1881 96.6245H51.6768Z" fill="white" stroke="white"/>
<path d="M51.6768 109.349H78.6995C79.8954 109.349 80.8632 108.38 80.8632 107.185C80.8632 105.99 79.8954 105.021 78.6995 105.021H51.6768C50.481 105.021 49.5132 105.99 49.5132 107.185C49.5132 108.38 50.481 109.349 51.6768 109.349Z" fill="white" stroke="white"/>
<path d="M42.7467 125.282L42.7466 125.282L38.5168 128.877V139.055C38.5168 142.484 35.7276 145.274 32.298 145.274H21.3154C17.8858 145.274 15.0967 142.484 15.0967 139.055V128.072C15.0967 124.643 17.8858 121.854 21.3154 121.854H32.298C34.3093 121.854 36.0868 122.819 37.2205 124.299L39.9446 121.984L39.9447 121.984M42.7467 125.282L39.9447 121.984M42.7467 125.282C43.6568 124.508 43.7694 123.143 42.9936 122.232M42.7467 125.282L42.9936 122.232M39.9447 121.984C40.8554 121.21 42.2219 121.322 42.9936 122.232M39.9447 121.984L42.9936 122.232M29.8857 136.212L29.8859 136.212L34.1895 132.554V139.055C34.1895 140.097 33.341 140.946 32.298 140.946H21.3154C20.2724 140.946 19.4239 140.097 19.4239 139.055L19.4239 128.072C19.4239 127.03 20.2725 126.181 21.3154 126.181H32.298C32.9844 126.181 33.5854 126.552 33.9157 127.107L28.6035 131.622L26.7736 129.792C25.9285 128.947 24.5591 128.947 23.714 129.792C22.8689 130.637 22.8689 132.006 23.714 132.851L26.9552 136.093C27.3755 136.513 27.9298 136.726 28.485 136.726C28.981 136.726 29.4801 136.556 29.8857 136.212Z" fill="white" stroke="white"/>
<path d="M81.7457 128.306H51.6768C50.481 128.306 49.5132 129.275 49.5132 130.469C49.5132 131.664 50.481 132.633 51.6768 132.633H81.7457C82.9416 132.633 83.9094 131.664 83.9094 130.469C83.9094 129.275 82.9416 128.306 81.7457 128.306Z" fill="white" stroke="white"/>
<path d="M70.1669 136.703H51.6768C50.481 136.703 49.5132 137.672 49.5132 138.866C49.5132 140.061 50.481 141.03 51.6768 141.03H70.1669C71.3627 141.03 72.3305 140.061 72.3305 138.866C72.3305 137.672 71.3627 136.703 70.1669 136.703Z" fill="white" stroke="white"/>
</svg>
