<svg width="142" height="144" viewBox="0 0 142 144" fill="none" xmlns="http://www.w3.org/2000/svg">
<path d="M138.05 143.772H3.95036C2.08786 143.772 0.846191 142.53 0.846191 140.667V36.3674C0.846191 34.5049 2.08786 33.2632 3.95036 33.2632C5.81286 33.2632 7.05452 34.5049 7.05452 36.3674V137.563H134.946V36.3674C134.946 34.5049 136.188 33.2632 138.05 33.2632C139.913 33.2632 141.155 34.5049 141.155 36.3674V140.667C141.155 142.53 139.913 143.772 138.05 143.772Z" fill="white"/>
<path d="M3.95019 39.4716C3.32935 39.4716 2.70852 39.4716 2.08769 38.8508C0.846019 37.6091 0.225186 35.7466 1.46685 34.505L25.0585 2.22165C25.6794 1.60081 26.921 0.97998 27.5419 0.97998H114.459C115.7 0.97998 116.321 1.60081 116.942 2.22165L140.534 34.505C141.775 35.7466 141.154 37.6091 139.913 38.8508C138.671 40.0925 136.809 39.4716 135.567 38.23L112.596 7.18831H29.4044L6.43352 38.23C5.81269 38.8508 5.19185 39.4716 3.95019 39.4716Z" fill="white"/>
<path d="M93.9708 39.4718C92.7291 39.4718 91.4875 38.8509 90.8666 37.6093L83.4166 22.0884H57.9625L51.1333 37.6093C50.5125 38.8509 48.65 39.4718 46.7875 38.8509C45.5458 38.2301 44.925 36.3676 45.5458 34.5051L53.6166 17.1218C54.2375 15.8801 55.4791 15.2593 56.7208 15.2593H86.5208C87.7625 15.2593 89.0041 15.8801 89.625 17.1218L97.6958 34.5051C98.3166 36.3676 97.6958 37.6093 96.4541 38.8509C94.5916 38.8509 94.5916 39.4718 93.9708 39.4718Z" fill="white"/>
<path d="M108.871 85.4131H122.529V91.6214H108.871V85.4131Z" fill="white"/>
<path d="M108.871 97.8301H122.529V104.038H108.871V97.8301Z" fill="white"/>
<path d="M108.871 110.247H122.529V116.455H108.871V110.247Z" fill="white"/>
<path d="M93.9711 59.3382H48.0295C46.167 59.3382 44.9253 58.0965 44.9253 56.234V33.2632H51.1336V53.1299H90.2461V33.2632H96.4545V56.234C97.0753 58.0965 95.8336 59.3382 93.9711 59.3382Z" fill="white"/>
<path d="M48.0295 39.4715H3.95036C2.08786 39.4715 0.846191 38.2299 0.846191 36.3674C0.846191 34.5049 2.08786 33.2632 3.95036 33.2632H48.0295C49.892 33.2632 51.1337 34.5049 51.1337 36.3674C51.1337 38.2299 49.892 39.4715 48.0295 39.4715Z" fill="white"/>
<path d="M138.05 39.4715H93.9709C92.1084 39.4715 90.8667 38.2299 90.8667 36.3674C90.8667 34.5049 92.1084 33.2632 93.9709 33.2632H138.05C139.913 33.2632 141.154 34.5049 141.154 36.3674C141.154 38.2299 139.292 39.4715 138.05 39.4715Z" fill="white"/>
<path d="M48.6503 129.492C48.0295 129.492 48.0295 129.492 47.4086 129.492C29.4045 123.284 16.9878 105.901 16.9878 86.0341V69.8924C16.9878 68.6508 17.6086 67.4091 18.8503 66.7883L47.4086 55.6133H49.892L78.4503 66.7883C79.692 67.4091 80.3128 68.6508 80.3128 69.8924V86.0341C80.3128 105.28 67.8961 122.663 49.892 129.492C49.2711 129.492 48.6503 129.492 48.6503 129.492ZM23.1961 71.7549V86.0341C23.1961 102.176 33.1295 117.076 48.6503 123.284C63.5503 117.076 74.1045 102.797 74.1045 86.0341V71.7549L48.6503 61.8216L23.1961 71.7549Z" fill="white"/>
<path d="M43.0625 104.038C42.4417 104.038 41.2 104.038 40.5792 103.418C39.3375 102.176 39.3375 100.313 40.5792 99.0717L57.3417 82.3092C58.5834 81.0675 60.4459 81.0675 61.6875 82.3092C62.9292 83.5508 62.9292 85.4133 61.6875 86.655L44.925 103.418C44.3042 103.418 43.6834 104.038 43.0625 104.038Z" fill="white"/>
<path d="M43.0626 104.038C42.4418 104.038 41.2001 104.038 40.5793 103.418L34.9918 97.2092C33.7501 95.9675 33.7501 94.105 34.9918 92.8634C36.2335 91.6217 38.096 91.6217 39.3376 92.8634L44.9251 98.4509C46.1668 99.6925 46.1668 101.555 44.9251 102.797C44.3043 103.418 43.6835 104.038 43.0626 104.038Z" fill="white"/>
</svg>
